M48
; DRILL file {KiCad 6.0.0-rc1-unknown-d76c6bc884~144~ubuntu21.10.1} date Út 30. listopadu 2021, 16:14:12
; FORMAT={-:-/ absolute / inch / decimal}
; #@! TF.CreationDate,2021-11-30T16:14:12+00:00
; #@! TF.GenerationSoftware,Kicad,Pcbnew,6.0.0-rc1-unknown-d76c6bc884~144~ubuntu21.10.1
; #@! TF.FileFunction,Plated,1,2,PTH
FMAT,2
INCH
; #@! TA.AperFunction,Plated,PTH,ViaDrill
T1C0.0157
; #@! TA.AperFunction,Plated,PTH,ComponentDrill
T2C0.0394
%
G90
G05
T1
X6.065Y-7.18
X6.12Y-7.18
X6.18Y-7.185
T2
X3.9Y-7.0
X3.9Y-7.1
X4.0Y-4.9
X4.0Y-5.0
X4.0Y-5.1
X4.0Y-5.2
X4.0Y-5.3
X4.0Y-5.4
X4.0Y-7.0
X4.0Y-7.1
X4.1Y-4.9
X4.1Y-5.0
X4.1Y-5.1
X4.1Y-5.2
X4.1Y-5.3
X4.1Y-5.4
X4.1Y-7.0
X4.1Y-7.1
X4.2Y-4.9
X4.2Y-5.0
X4.2Y-5.1
X4.2Y-5.2
X4.2Y-5.3
X4.2Y-5.4
X4.2Y-7.0
X4.2Y-7.1
X4.3Y-4.9
X4.3Y-5.0
X4.3Y-5.1
X4.3Y-5.2
X4.3Y-5.3
X4.3Y-5.4
X4.3Y-7.0
X4.3Y-7.1
X4.4Y-4.9
X4.4Y-5.0
X4.4Y-5.1
X4.4Y-5.2
X4.4Y-5.3
X4.4Y-5.4
X4.4Y-7.0
X4.4Y-7.1
X4.5Y-4.9
X4.5Y-5.0
X4.5Y-5.1
X4.5Y-5.2
X4.5Y-5.3
X4.5Y-5.4
X4.5Y-7.0
X4.5Y-7.1
X4.6Y-4.9
X4.6Y-5.0
X4.6Y-5.1
X4.6Y-5.2
X4.6Y-5.3
X4.6Y-5.4
X4.6Y-7.0
X4.6Y-7.1
X4.7Y-4.9
X4.7Y-5.0
X4.7Y-5.1
X4.7Y-5.2
X4.7Y-5.3
X4.7Y-5.4
X4.7Y-7.0
X4.7Y-7.1
X4.8Y-4.9
X4.8Y-5.0
X4.8Y-5.1
X4.8Y-5.2
X4.8Y-5.3
X4.8Y-5.4
X4.8Y-7.0
X4.8Y-7.1
X4.9Y-4.9
X4.9Y-5.0
X4.9Y-5.1
X4.9Y-5.2
X4.9Y-5.3
X4.9Y-5.4
X4.9Y-7.0
X4.9Y-7.1
X5.0Y-4.9
X5.0Y-5.0
X5.0Y-5.1
X5.0Y-5.2
X5.0Y-5.3
X5.0Y-5.4
X5.0Y-7.0
X5.0Y-7.1
X5.1Y-4.9
X5.1Y-5.0
X5.1Y-5.1
X5.1Y-5.2
X5.1Y-5.3
X5.1Y-5.4
X5.1Y-7.0
X5.1Y-7.1
X5.2Y-4.9
X5.2Y-5.0
X5.2Y-5.1
X5.2Y-5.2
X5.2Y-5.3
X5.2Y-5.4
X5.2Y-7.0
X5.2Y-7.1
X5.3Y-4.9
X5.3Y-5.0
X5.3Y-5.1
X5.3Y-5.2
X5.3Y-5.3
X5.3Y-5.4
X5.3Y-7.0
X5.3Y-7.1
X5.4Y-4.9
X5.4Y-5.0
X5.4Y-5.1
X5.4Y-5.2
X5.4Y-5.3
X5.4Y-5.4
X5.4Y-7.0
X5.4Y-7.1
X5.5Y-4.9
X5.5Y-5.0
X5.5Y-5.1
X5.5Y-5.2
X5.5Y-5.3
X5.5Y-5.4
X5.5Y-7.0
X5.5Y-7.1
X5.6Y-4.9
X5.6Y-5.0
X5.6Y-5.1
X5.6Y-5.2
X5.6Y-5.3
X5.6Y-5.4
X5.6Y-7.0
X5.6Y-7.1
X5.7Y-4.9
X5.7Y-5.0
X5.7Y-5.1
X5.7Y-5.2
X5.7Y-5.3
X5.7Y-5.4
X5.7Y-7.0
X5.7Y-7.1
X5.8Y-4.9
X5.8Y-5.0
X5.8Y-5.1
X5.8Y-5.2
X5.8Y-5.3
X5.8Y-5.4
X5.8Y-7.0
X5.8Y-7.1
X5.9Y-4.9
X5.9Y-5.0
X5.9Y-5.1
X5.9Y-5.2
X5.9Y-5.3
X5.9Y-5.4
X6.0Y-4.9
X6.0Y-5.0
X6.0Y-5.1
X6.0Y-5.2
X6.0Y-5.3
X6.0Y-5.4
X6.1Y-4.9
X6.1Y-5.0
X6.1Y-5.1
X6.1Y-5.2
X6.1Y-5.3
X6.2Y-4.9
X6.2Y-5.0
X6.2Y-5.1
X6.2Y-5.2
X6.3Y-4.9
X6.3Y-5.0
X6.3Y-5.1
X6.4Y-5.1
X6.4Y-5.2
X6.4Y-5.3
X6.4Y-5.4
X6.4Y-5.5
X6.4Y-5.6
X6.4Y-5.7
X6.4Y-5.8
X6.4Y-5.9
X6.4Y-6.0
X6.4Y-6.1
X6.4Y-6.2
X6.4Y-6.3
X6.4Y-6.4
X6.4Y-6.5
X6.4Y-6.6
X6.4Y-6.7
X6.4Y-6.8
X6.4Y-6.9
X6.4Y-7.0
X6.5Y-5.1
X6.5Y-5.2
X6.5Y-5.3
X6.5Y-5.4
X6.5Y-5.5
X6.5Y-5.6
X6.5Y-5.7
X6.5Y-5.8
X6.5Y-5.9
X6.5Y-6.0
X6.5Y-6.1
X6.5Y-6.2
X6.5Y-6.3
X6.5Y-6.4
X6.5Y-6.5
X6.5Y-6.6
X6.5Y-6.7
X6.5Y-6.8
X6.5Y-6.9
X6.5Y-7.0
T0
M30
