G04 #@! TF.GenerationSoftware,KiCad,Pcbnew,6.0.0-rc1-unknown-d76c6bc884~144~ubuntu21.10.1*
G04 #@! TF.CreationDate,2021-12-01T12:13:09+00:00*
G04 #@! TF.ProjectId,tad2_top,74616432-5f74-46f7-902e-6b696361645f,1.0*
G04 #@! TF.SameCoordinates,Original*
G04 #@! TF.FileFunction,Soldermask,Top*
G04 #@! TF.FilePolarity,Negative*
%FSLAX46Y46*%
G04 Gerber Fmt 4.6, Leading zero omitted, Abs format (unit mm)*
G04 Created by KiCad (PCBNEW 6.0.0-rc1-unknown-d76c6bc884~144~ubuntu21.10.1) date 2021-12-01 12:13:09*
%MOMM*%
%LPD*%
G01*
G04 APERTURE LIST*
G04 Aperture macros list*
%AMRoundRect*
0 Rectangle with rounded corners*
0 $1 Rounding radius*
0 $2 $3 $4 $5 $6 $7 $8 $9 X,Y pos of 4 corners*
0 Add a 4 corners polygon primitive as box body*
4,1,4,$2,$3,$4,$5,$6,$7,$8,$9,$2,$3,0*
0 Add four circle primitives for the rounded corners*
1,1,$1+$1,$2,$3*
1,1,$1+$1,$4,$5*
1,1,$1+$1,$6,$7*
1,1,$1+$1,$8,$9*
0 Add four rect primitives between the rounded corners*
20,1,$1+$1,$2,$3,$4,$5,0*
20,1,$1+$1,$4,$5,$6,$7,0*
20,1,$1+$1,$6,$7,$8,$9,0*
20,1,$1+$1,$8,$9,$2,$3,0*%
G04 Aperture macros list end*
%ADD10C,2.802000*%
%ADD11O,1.802000X1.802000*%
%ADD12RoundRect,0.051000X-0.200000X-0.500000X0.200000X-0.500000X0.200000X0.500000X-0.200000X0.500000X0*%
%ADD13RoundRect,0.051000X-1.000000X-0.650000X1.000000X-0.650000X1.000000X0.650000X-1.000000X0.650000X0*%
%ADD14RoundRect,0.051000X-0.850000X-0.850000X0.850000X-0.850000X0.850000X0.850000X-0.850000X0.850000X0*%
%ADD15RoundRect,0.051000X0.850000X-0.850000X0.850000X0.850000X-0.850000X0.850000X-0.850000X-0.850000X0*%
G04 APERTURE END LIST*
D10*
X163864000Y-182680000D03*
X163864000Y-124680000D03*
D11*
X104140000Y-127000000D03*
X142240000Y-137160000D03*
X119380000Y-124460000D03*
X106680000Y-137160000D03*
X144780000Y-132080000D03*
X139700000Y-137160000D03*
X109220000Y-129540000D03*
X152400000Y-124460000D03*
D10*
X138700000Y-185700000D03*
D11*
X104140000Y-134620000D03*
X137160000Y-127000000D03*
X129540000Y-129540000D03*
X147320000Y-134620000D03*
X134620000Y-137160000D03*
X111760000Y-124460000D03*
X127000000Y-124460000D03*
X149860000Y-134620000D03*
X144780000Y-129540000D03*
X147320000Y-127000000D03*
X154940000Y-132080000D03*
X106680000Y-124460000D03*
X111760000Y-132080000D03*
X144780000Y-137160000D03*
X119380000Y-127000000D03*
X114300000Y-132080000D03*
X144780000Y-124460000D03*
X147320000Y-124460000D03*
X144780000Y-127000000D03*
X160020000Y-127000000D03*
X124460000Y-132080000D03*
X104140000Y-129540000D03*
X116840000Y-129540000D03*
X101600000Y-127000000D03*
X119380000Y-129540000D03*
X139700000Y-134620000D03*
X101600000Y-132080000D03*
X147320000Y-132080000D03*
X109220000Y-124460000D03*
X121920000Y-134620000D03*
X129540000Y-124460000D03*
X116840000Y-134620000D03*
X109220000Y-134620000D03*
X104140000Y-137160000D03*
X109220000Y-137160000D03*
X111760000Y-127000000D03*
X144780000Y-134620000D03*
X111760000Y-137160000D03*
X160020000Y-124460000D03*
X104140000Y-124460000D03*
X124460000Y-137160000D03*
X142240000Y-132080000D03*
X129540000Y-132080000D03*
X132080000Y-129540000D03*
X157480000Y-132080000D03*
X132080000Y-137160000D03*
X139700000Y-124460000D03*
X121920000Y-129540000D03*
X154940000Y-127000000D03*
X139700000Y-129540000D03*
X114300000Y-137160000D03*
X152400000Y-127000000D03*
X127000000Y-129540000D03*
X149860000Y-127000000D03*
X129540000Y-134620000D03*
X134620000Y-127000000D03*
X139700000Y-132080000D03*
X116840000Y-124460000D03*
D10*
X100700000Y-144700000D03*
D11*
X121920000Y-124460000D03*
X160020000Y-129540000D03*
X101600000Y-124460000D03*
X114300000Y-129540000D03*
X154940000Y-124460000D03*
X101600000Y-134620000D03*
X127000000Y-132080000D03*
X129540000Y-127000000D03*
X152400000Y-134620000D03*
X116840000Y-132080000D03*
X137160000Y-137160000D03*
X106680000Y-127000000D03*
X132080000Y-127000000D03*
X139700000Y-127000000D03*
X134620000Y-134620000D03*
X137160000Y-129540000D03*
X152400000Y-137160000D03*
X119380000Y-132080000D03*
X137160000Y-132080000D03*
X147320000Y-137160000D03*
X154940000Y-134620000D03*
X137160000Y-134620000D03*
D10*
X100700000Y-120700000D03*
D11*
X114300000Y-127000000D03*
X142240000Y-134620000D03*
X154940000Y-129540000D03*
X137160000Y-124460000D03*
X157480000Y-127000000D03*
X152400000Y-129540000D03*
X149860000Y-124460000D03*
X132080000Y-132080000D03*
X157480000Y-124460000D03*
X142240000Y-129540000D03*
X147320000Y-129540000D03*
X157480000Y-129540000D03*
X106680000Y-134620000D03*
X121920000Y-137160000D03*
X119380000Y-137160000D03*
X114300000Y-124460000D03*
X109220000Y-132080000D03*
X127000000Y-137160000D03*
X129540000Y-137160000D03*
D10*
X152700000Y-120700000D03*
D11*
X106680000Y-132080000D03*
X149860000Y-132080000D03*
D12*
X147200000Y-183790000D03*
X148200000Y-183790000D03*
X149200000Y-183790000D03*
X150200000Y-183790000D03*
X151200000Y-183790000D03*
X152200000Y-183790000D03*
X153200000Y-183790000D03*
X154200000Y-183790000D03*
X155200000Y-183790000D03*
X156200000Y-183790000D03*
D13*
X144400000Y-186490000D03*
X159000000Y-186490000D03*
D11*
X124460000Y-129540000D03*
X134620000Y-129540000D03*
X111760000Y-134620000D03*
D10*
X100700000Y-163700000D03*
D11*
X101600000Y-137160000D03*
X127000000Y-127000000D03*
X114300000Y-134620000D03*
X134620000Y-132080000D03*
X116840000Y-137160000D03*
X132080000Y-124460000D03*
D10*
X100700000Y-185700000D03*
D11*
X152400000Y-132080000D03*
X127000000Y-134620000D03*
X121920000Y-132080000D03*
X149860000Y-129540000D03*
X104140000Y-132080000D03*
X119380000Y-134620000D03*
X124460000Y-124460000D03*
X134620000Y-124460000D03*
X116840000Y-127000000D03*
X121920000Y-127000000D03*
X101600000Y-129540000D03*
X124460000Y-127000000D03*
X142240000Y-124460000D03*
X124460000Y-134620000D03*
X111760000Y-129540000D03*
X142240000Y-127000000D03*
X109220000Y-127000000D03*
X149860000Y-137160000D03*
X106680000Y-129540000D03*
X132080000Y-134620000D03*
D14*
X165100000Y-177800000D03*
D11*
X162560000Y-177800000D03*
X165100000Y-175260000D03*
X162560000Y-175260000D03*
X165100000Y-172720000D03*
X162560000Y-172720000D03*
X165100000Y-170180000D03*
X162560000Y-170180000D03*
X165100000Y-167640000D03*
X162560000Y-167640000D03*
X165100000Y-165100000D03*
X162560000Y-165100000D03*
X165100000Y-162560000D03*
X162560000Y-162560000D03*
X165100000Y-160020000D03*
X162560000Y-160020000D03*
X165100000Y-157480000D03*
X162560000Y-157480000D03*
X165100000Y-154940000D03*
X162560000Y-154940000D03*
X165100000Y-152400000D03*
X162560000Y-152400000D03*
X165100000Y-149860000D03*
X162560000Y-149860000D03*
X165100000Y-147320000D03*
X162560000Y-147320000D03*
X165100000Y-144780000D03*
X162560000Y-144780000D03*
X165100000Y-142240000D03*
X162560000Y-142240000D03*
X165100000Y-139700000D03*
X162560000Y-139700000D03*
X165100000Y-137160000D03*
X162560000Y-137160000D03*
X165100000Y-134620000D03*
X162560000Y-134620000D03*
X165100000Y-132080000D03*
X162560000Y-132080000D03*
X165100000Y-129540000D03*
X162560000Y-129540000D03*
D15*
X147320000Y-177800000D03*
D11*
X147320000Y-180340000D03*
X144780000Y-177800000D03*
X144780000Y-180340000D03*
X142240000Y-177800000D03*
X142240000Y-180340000D03*
X139700000Y-177800000D03*
X139700000Y-180340000D03*
X137160000Y-177800000D03*
X137160000Y-180340000D03*
X134620000Y-177800000D03*
X134620000Y-180340000D03*
X132080000Y-177800000D03*
X132080000Y-180340000D03*
X129540000Y-177800000D03*
X129540000Y-180340000D03*
X127000000Y-177800000D03*
X127000000Y-180340000D03*
X124460000Y-177800000D03*
X124460000Y-180340000D03*
X121920000Y-177800000D03*
X121920000Y-180340000D03*
X119380000Y-177800000D03*
X119380000Y-180340000D03*
X116840000Y-177800000D03*
X116840000Y-180340000D03*
X114300000Y-177800000D03*
X114300000Y-180340000D03*
X111760000Y-177800000D03*
X111760000Y-180340000D03*
X109220000Y-177800000D03*
X109220000Y-180340000D03*
X106680000Y-177800000D03*
X106680000Y-180340000D03*
X104140000Y-177800000D03*
X104140000Y-180340000D03*
X101600000Y-177800000D03*
X101600000Y-180340000D03*
X99060000Y-177800000D03*
X99060000Y-180340000D03*
M02*
