G04 #@! TF.GenerationSoftware,KiCad,Pcbnew,6.0.0-rc1-unknown-d76c6bc884~144~ubuntu21.10.1*
G04 #@! TF.CreationDate,2021-12-01T12:13:08+00:00*
G04 #@! TF.ProjectId,tad2_top,74616432-5f74-46f7-902e-6b696361645f,1.0*
G04 #@! TF.SameCoordinates,Original*
G04 #@! TF.FileFunction,Legend,Bot*
G04 #@! TF.FilePolarity,Positive*
%FSLAX46Y46*%
G04 Gerber Fmt 4.6, Leading zero omitted, Abs format (unit mm)*
G04 Created by KiCad (PCBNEW 6.0.0-rc1-unknown-d76c6bc884~144~ubuntu21.10.1) date 2021-12-01 12:13:08*
%MOMM*%
%LPD*%
G01*
G04 APERTURE LIST*
%ADD10C,0.150000*%
%ADD11C,0.120000*%
G04 APERTURE END LIST*
D10*
X167963333Y-152290380D02*
X167963333Y-153004666D01*
X168010952Y-153147523D01*
X168106190Y-153242761D01*
X168249047Y-153290380D01*
X168344285Y-153290380D01*
X166963333Y-153290380D02*
X167534761Y-153290380D01*
X167249047Y-153290380D02*
X167249047Y-152290380D01*
X167344285Y-152433238D01*
X167439523Y-152528476D01*
X167534761Y-152576095D01*
X152440380Y-175150095D02*
X152440380Y-175721523D01*
X153440380Y-175435809D02*
X152440380Y-175435809D01*
X153440380Y-176054857D02*
X152440380Y-176054857D01*
X152440380Y-176435809D01*
X152488000Y-176531047D01*
X152535619Y-176578666D01*
X152630857Y-176626285D01*
X152773714Y-176626285D01*
X152868952Y-176578666D01*
X152916571Y-176531047D01*
X152964190Y-176435809D01*
X152964190Y-176054857D01*
X152440380Y-176959619D02*
X152440380Y-177578666D01*
X152821333Y-177245333D01*
X152821333Y-177388190D01*
X152868952Y-177483428D01*
X152916571Y-177531047D01*
X153011809Y-177578666D01*
X153249904Y-177578666D01*
X153345142Y-177531047D01*
X153392761Y-177483428D01*
X153440380Y-177388190D01*
X153440380Y-177102476D01*
X153392761Y-177007238D01*
X153345142Y-176959619D01*
X157390380Y-175150095D02*
X157390380Y-175721523D01*
X158390380Y-175435809D02*
X157390380Y-175435809D01*
X158390380Y-176054857D02*
X157390380Y-176054857D01*
X157390380Y-176435809D01*
X157438000Y-176531047D01*
X157485619Y-176578666D01*
X157580857Y-176626285D01*
X157723714Y-176626285D01*
X157818952Y-176578666D01*
X157866571Y-176531047D01*
X157914190Y-176435809D01*
X157914190Y-176054857D01*
X158390380Y-177578666D02*
X158390380Y-177007238D01*
X158390380Y-177292952D02*
X157390380Y-177292952D01*
X157533238Y-177197714D01*
X157628476Y-177102476D01*
X157676095Y-177007238D01*
X149542380Y-178736666D02*
X150256666Y-178736666D01*
X150399523Y-178689047D01*
X150494761Y-178593809D01*
X150542380Y-178450952D01*
X150542380Y-178355714D01*
X149637619Y-179165238D02*
X149590000Y-179212857D01*
X149542380Y-179308095D01*
X149542380Y-179546190D01*
X149590000Y-179641428D01*
X149637619Y-179689047D01*
X149732857Y-179736666D01*
X149828095Y-179736666D01*
X149970952Y-179689047D01*
X150542380Y-179117619D01*
X150542380Y-179736666D01*
X154940380Y-175150095D02*
X154940380Y-175721523D01*
X155940380Y-175435809D02*
X154940380Y-175435809D01*
X155940380Y-176054857D02*
X154940380Y-176054857D01*
X154940380Y-176435809D01*
X154988000Y-176531047D01*
X155035619Y-176578666D01*
X155130857Y-176626285D01*
X155273714Y-176626285D01*
X155368952Y-176578666D01*
X155416571Y-176531047D01*
X155464190Y-176435809D01*
X155464190Y-176054857D01*
X155035619Y-177007238D02*
X154988000Y-177054857D01*
X154940380Y-177150095D01*
X154940380Y-177388190D01*
X154988000Y-177483428D01*
X155035619Y-177531047D01*
X155130857Y-177578666D01*
X155226095Y-177578666D01*
X155368952Y-177531047D01*
X155940380Y-176959619D01*
X155940380Y-177578666D01*
D11*
X163830000Y-179130000D02*
X163830000Y-176530000D01*
X161230000Y-128210000D02*
X166430000Y-128210000D01*
X161230000Y-179130000D02*
X163830000Y-179130000D01*
X161230000Y-179130000D02*
X161230000Y-128210000D01*
X166430000Y-179130000D02*
X166430000Y-177800000D01*
X166430000Y-176530000D02*
X166430000Y-128210000D01*
X163830000Y-176530000D02*
X166430000Y-176530000D01*
X165100000Y-179130000D02*
X166430000Y-179130000D01*
X153688000Y-178562000D02*
G75*
G03*
X153688000Y-178562000I-700000J0D01*
G01*
X158688000Y-178562000D02*
G75*
G03*
X158688000Y-178562000I-700000J0D01*
G01*
X146050000Y-176470000D02*
X97730000Y-176470000D01*
X148650000Y-181670000D02*
X97730000Y-181670000D01*
X146050000Y-179070000D02*
X146050000Y-176470000D01*
X148650000Y-181670000D02*
X148650000Y-179070000D01*
X97730000Y-181670000D02*
X97730000Y-176470000D01*
X148650000Y-176470000D02*
X147320000Y-176470000D01*
X148650000Y-179070000D02*
X146050000Y-179070000D01*
X148650000Y-177800000D02*
X148650000Y-176470000D01*
X156188000Y-178562000D02*
G75*
G03*
X156188000Y-178562000I-700000J0D01*
G01*
M02*
