%TF.GenerationSoftware,KiCad,Pcbnew,6.0.0-rc1-unknown-d76c6bc884~144~ubuntu21.10.1*%
%TF.CreationDate,2021-11-30T16:14:45+00:00*%
%TF.ProjectId,tad2_bottom,74616432-5f62-46f7-9474-6f6d2e6b6963,rev?*%
%TF.SameCoordinates,Original*%
%TF.FileFunction,Paste,Bot*%
%TF.FilePolarity,Positive*%
%FSLAX46Y46*%
G04 Gerber Fmt 4.6, Leading zero omitted, Abs format (unit mm)*
G04 Created by KiCad (PCBNEW 6.0.0-rc1-unknown-d76c6bc884~144~ubuntu21.10.1) date 2021-11-30 16:14:45*
%MOMM*%
%LPD*%
G01*
G04 APERTURE LIST*
G04 Aperture macros list*
%AMRoundRect*
0 Rectangle with rounded corners*
0 $1 Rounding radius*
0 $2 $3 $4 $5 $6 $7 $8 $9 X,Y pos of 4 corners*
0 Add a 4 corners polygon primitive as box body*
4,1,4,$2,$3,$4,$5,$6,$7,$8,$9,$2,$3,0*
0 Add four circle primitives for the rounded corners*
1,1,$1+$1,$2,$3*
1,1,$1+$1,$4,$5*
1,1,$1+$1,$6,$7*
1,1,$1+$1,$8,$9*
0 Add four rect primitives between the rounded corners*
20,1,$1+$1,$2,$3,$4,$5,0*
20,1,$1+$1,$4,$5,$6,$7,0*
20,1,$1+$1,$6,$7,$8,$9,0*
20,1,$1+$1,$8,$9,$2,$3,0*%
G04 Aperture macros list end*
%ADD10R,1.200000X0.900000*%
%ADD11R,1.200000X0.958000*%
%ADD12RoundRect,0.250000X-0.450000X0.350000X-0.450000X-0.350000X0.450000X-0.350000X0.450000X0.350000X0*%
%ADD13RoundRect,0.250000X0.337500X0.475000X-0.337500X0.475000X-0.337500X-0.475000X0.337500X-0.475000X0*%
%ADD14RoundRect,0.250000X-0.475000X0.337500X-0.475000X-0.337500X0.475000X-0.337500X0.475000X0.337500X0*%
%ADD15RoundRect,0.250000X-0.350000X0.275000X-0.350000X-0.275000X0.350000X-0.275000X0.350000X0.275000X0*%
G04 APERTURE END LIST*
D10*
%TO.C,S_'1*%
X132588000Y-142977000D03*
D11*
X132588000Y-139648000D03*
%TD*%
D10*
%TO.C,S_;1*%
X124460000Y-142873000D03*
D11*
X124460000Y-139544000D03*
%TD*%
D10*
%TO.C,S_ENTER1*%
X149006000Y-143053000D03*
D11*
X149006000Y-139724000D03*
%TD*%
D10*
%TO.C,S_MAC1*%
X145958000Y-162611000D03*
D11*
X145958000Y-159282000D03*
%TD*%
D10*
%TO.C,S_O1*%
X114716000Y-132893000D03*
D11*
X114716000Y-129564000D03*
%TD*%
D10*
%TO.C,S_[1*%
X130972000Y-132893000D03*
D11*
X130972000Y-129564000D03*
%TD*%
D10*
%TO.C,S_TAB1*%
X39532000Y-132893000D03*
D11*
X39532000Y-129564000D03*
%TD*%
D10*
%TO.C,S_8*%
X105500000Y-122987000D03*
D11*
X105500000Y-119658000D03*
%TD*%
D10*
%TO.C,S_+1*%
X138012000Y-122987000D03*
D11*
X138012000Y-119658000D03*
%TD*%
D10*
%TO.C,S_3*%
X64860000Y-122987000D03*
D11*
X64860000Y-119658000D03*
%TD*%
D10*
%TO.C,S_RSH1*%
X149006000Y-152959000D03*
D11*
X149006000Y-149630000D03*
%TD*%
D10*
%TO.C,S_X1*%
X64932000Y-152705000D03*
D11*
X64932000Y-149376000D03*
%TD*%
D10*
%TO.C,S_I1*%
X106588000Y-132893000D03*
D11*
X106588000Y-129564000D03*
%TD*%
D10*
%TO.C,S_D1*%
X67564000Y-142873000D03*
D11*
X67564000Y-139544000D03*
%TD*%
D10*
%TO.C,S_CTR1*%
X41818000Y-142799000D03*
D11*
X41818000Y-139470000D03*
%TD*%
D10*
%TO.C,S_L1*%
X116332000Y-142873000D03*
D11*
X116332000Y-139544000D03*
%TD*%
D10*
%TO.C,S_J1*%
X100076000Y-142873000D03*
D11*
X100076000Y-139544000D03*
%TD*%
D10*
%TO.C,S_T1*%
X82204000Y-132893000D03*
D11*
X82204000Y-129564000D03*
%TD*%
D10*
%TO.C,S_2*%
X56732000Y-122995000D03*
D11*
X56732000Y-119666000D03*
%TD*%
D10*
%TO.C,S_SPC1*%
X93980000Y-162611000D03*
D11*
X93980000Y-159282000D03*
%TD*%
D10*
%TO.C,S_LSH1*%
X39552000Y-152652000D03*
D11*
X39552000Y-149323000D03*
%TD*%
D10*
%TO.C,S_RFN1*%
X137830000Y-162611000D03*
D11*
X137830000Y-159282000D03*
%TD*%
D10*
%TO.C,S_\u005C1*%
X140754000Y-143053000D03*
D11*
X140754000Y-139724000D03*
%TD*%
D10*
%TO.C,S_1*%
X48604000Y-122987000D03*
D11*
X48604000Y-119658000D03*
%TD*%
D10*
%TO.C,S_/1*%
X129956000Y-152705000D03*
D11*
X129956000Y-149376000D03*
%TD*%
D10*
%TO.C,S_7*%
X97372000Y-122987000D03*
D11*
X97372000Y-119658000D03*
%TD*%
D10*
%TO.C,S_P1*%
X122844000Y-132893000D03*
D11*
X122844000Y-129564000D03*
%TD*%
D10*
%TO.C,S_-1*%
X129884000Y-122987000D03*
D11*
X129884000Y-119658000D03*
%TD*%
D10*
%TO.C,S_]1*%
X139100000Y-132893000D03*
D11*
X139100000Y-129564000D03*
%TD*%
D10*
%TO.C,S_U1*%
X98460000Y-132893000D03*
D11*
X98460000Y-129564000D03*
%TD*%
D10*
%TO.C,S_RIG1*%
X129702000Y-162611000D03*
D11*
X129702000Y-159282000D03*
%TD*%
D10*
%TO.C,S_LHY1*%
X40548000Y-162611000D03*
D11*
X40548000Y-159282000D03*
%TD*%
D10*
%TO.C,S_.1*%
X121828000Y-152705000D03*
D11*
X121828000Y-149376000D03*
%TD*%
D10*
%TO.C,S_4*%
X72988000Y-122987000D03*
D11*
X72988000Y-119658000D03*
%TD*%
D10*
%TO.C,S_C1*%
X73060000Y-152705000D03*
D11*
X73060000Y-149376000D03*
%TD*%
D10*
%TO.C,S_TIL1*%
X137830000Y-152705000D03*
D11*
X137830000Y-149376000D03*
%TD*%
D10*
%TO.C,S_H1*%
X91948000Y-142873000D03*
D11*
X91948000Y-139544000D03*
%TD*%
D10*
%TO.C,S_K1*%
X108204000Y-142873000D03*
D11*
X108204000Y-139544000D03*
%TD*%
D10*
%TO.C,S_DOWN1*%
X64932000Y-162611000D03*
D11*
X64932000Y-159282000D03*
%TD*%
D10*
%TO.C,S_A1*%
X51308000Y-142873000D03*
D11*
X51308000Y-139544000D03*
%TD*%
D10*
%TO.C,S_BCK1*%
X149006000Y-132893000D03*
D11*
X149006000Y-129564000D03*
%TD*%
D10*
%TO.C,S_10*%
X121756000Y-122987000D03*
D11*
X121756000Y-119658000D03*
%TD*%
D10*
%TO.C,S_DEL1*%
X149006000Y-122987000D03*
D11*
X149006000Y-119658000D03*
%TD*%
D10*
%TO.C,S_R1*%
X74076000Y-132893000D03*
D11*
X74076000Y-129564000D03*
%TD*%
D10*
%TO.C,S_B1*%
X89316000Y-152705000D03*
D11*
X89316000Y-149376000D03*
%TD*%
D10*
%TO.C,S_Q1*%
X49692000Y-132893000D03*
D11*
X49692000Y-129564000D03*
%TD*%
D10*
%TO.C,S_M1*%
X105572000Y-152753500D03*
D11*
X105572000Y-149424500D03*
%TD*%
D10*
%TO.C,S_LEF1*%
X121574000Y-162611000D03*
D11*
X121574000Y-159282000D03*
%TD*%
D10*
%TO.C,S_ESC1*%
X39532000Y-122987000D03*
D11*
X39532000Y-119658000D03*
%TD*%
D10*
%TO.C,S_W1*%
X57820000Y-132893000D03*
D11*
X57820000Y-129564000D03*
%TD*%
D10*
%TO.C,S_V1*%
X81188000Y-152705000D03*
D11*
X81188000Y-149376000D03*
%TD*%
D10*
%TO.C,S_5*%
X81116000Y-122987000D03*
D11*
X81116000Y-119658000D03*
%TD*%
D10*
%TO.C,S_Y1*%
X90332000Y-132893000D03*
D11*
X90332000Y-129564000D03*
%TD*%
D10*
%TO.C,S_G1*%
X83820000Y-142873000D03*
D11*
X83820000Y-139544000D03*
%TD*%
D10*
%TO.C,S_N1*%
X97444000Y-152705000D03*
D11*
X97444000Y-149376000D03*
%TD*%
D10*
%TO.C,S_9*%
X113628000Y-122987000D03*
D11*
X113628000Y-119658000D03*
%TD*%
D10*
%TO.C,S_ALT1*%
X47680000Y-152652000D03*
D11*
X47680000Y-149323000D03*
%TD*%
D10*
%TO.C,S_6*%
X89244000Y-122987000D03*
D11*
X89244000Y-119658000D03*
%TD*%
D10*
%TO.C,S_LFN1*%
X48676000Y-162611000D03*
D11*
X48676000Y-159282000D03*
%TD*%
D10*
%TO.C,S_S1*%
X59436000Y-142873000D03*
D11*
X59436000Y-139544000D03*
%TD*%
D10*
%TO.C,S_Z1*%
X56804000Y-152705000D03*
D11*
X56804000Y-149376000D03*
%TD*%
D10*
%TO.C,S_E1*%
X65948000Y-132893000D03*
D11*
X65948000Y-129564000D03*
%TD*%
D10*
%TO.C,S_UP1*%
X56804000Y-162611000D03*
D11*
X56804000Y-159282000D03*
%TD*%
D10*
%TO.C,S_\u002C1*%
X113700000Y-152705000D03*
D11*
X113700000Y-149376000D03*
%TD*%
D10*
%TO.C,S_F1*%
X75692000Y-142873000D03*
D11*
X75692000Y-139544000D03*
%TD*%
D12*
%TO.C,R7*%
X45593000Y-105984800D03*
X45593000Y-107984800D03*
%TD*%
%TO.C,R4*%
X140462000Y-105984800D03*
X140462000Y-107984800D03*
%TD*%
D13*
%TO.C,C2*%
X138537500Y-110794800D03*
X136462500Y-110794800D03*
%TD*%
D14*
%TO.C,C12*%
X132588000Y-101303000D03*
X132588000Y-103378000D03*
%TD*%
D15*
%TO.C,L1*%
X136750000Y-105350000D03*
X136750000Y-107650000D03*
%TD*%
M02*
