M48
; DRILL file {KiCad 6.0.0-rc1-unknown-d76c6bc884~144~ubuntu21.10.1} date Út 30. listopadu 2021, 16:14:59
; FORMAT={-:-/ absolute / inch / decimal}
; #@! TF.CreationDate,2021-11-30T16:14:59+00:00
; #@! TF.GenerationSoftware,Kicad,Pcbnew,6.0.0-rc1-unknown-d76c6bc884~144~ubuntu21.10.1
; #@! TF.FileFunction,MixedPlating,1,2
FMAT,2
INCH
; #@! TA.AperFunction,Plated,PTH,ViaDrill
T1C0.0157
; #@! TA.AperFunction,Plated,PTH,ComponentDrill
T2C0.0236
; #@! TA.AperFunction,Plated,PTH,ComponentDrill
T3C0.0335
; #@! TA.AperFunction,Plated,PTH,ComponentDrill
T4C0.0354
; #@! TA.AperFunction,Plated,PTH,ComponentDrill
T5C0.0394
; #@! TA.AperFunction,Plated,PTH,ComponentDrill
T6C0.0512
; #@! TA.AperFunction,Plated,PTH,ComponentDrill
T7C0.0984
; #@! TA.AperFunction,NonPlated,NPTH,ComponentDrill
T8C0.0315
; #@! TA.AperFunction,NonPlated,NPTH,ComponentDrill
T9C0.0472
; #@! TA.AperFunction,NonPlated,NPTH,ComponentDrill
T10C0.0827
%
G90
G05
T1
X1.595Y-4.452
X1.646Y-4.454
X1.74Y-4.452
X1.8389Y-4.4471
X1.8609Y-4.3755
X1.88Y-4.432
X1.905Y-4.172
X1.916Y-3.9573
X1.9179Y-4.3976
X1.9307Y-3.9916
X1.945Y-4.462
X1.9961Y-4.2077
X2.0073Y-4.0783
X2.02Y-3.902
X2.0233Y-4.2359
X2.025Y-4.182
X2.0354Y-4.1336
X2.12Y-4.255
X2.125Y-4.142
X2.135Y-3.847
X2.1812Y-3.9956
X2.265Y-3.847
X2.34Y-4.16
X2.345Y-4.115
X2.43Y-3.9467
X2.43Y-3.9998
X2.497Y-4.0692
X2.58Y-4.0693
X3.3Y-4.1207
X3.35Y-4.072
X3.895Y-4.3069
X4.095Y-4.1756
X4.135Y-4.24
X4.1458Y-4.2042
X4.21Y-4.062
X4.3226Y-4.2444
X4.3754Y-4.1646
X4.4046Y-4.1354
X4.45Y-4.44
X4.4725Y-4.3392
X4.485Y-4.1686
X4.5Y-4.42
X4.68Y-4.3064
X4.7918Y-4.4153
X4.8288Y-4.4049
X4.88Y-4.3595
X4.8977Y-4.164
X4.95Y-4.575
X5.0182Y-4.2766
X5.095Y-4.595
X5.16Y-4.3602
X5.16Y-4.4016
X5.1923Y-4.137
X5.1954Y-4.4204
X5.2246Y-4.444
X5.2592Y-4.1444
X5.28Y-3.988
X5.2843Y-4.32
X5.2884Y-4.1152
X5.3149Y-4.3788
X5.3257Y-4.32
X5.3489Y-4.0514
X5.355Y-3.812
X5.3747Y-4.1929
X5.3937Y-4.312
X5.4079Y-4.0821
X5.424Y-3.936
X5.448Y-4.084
X5.4549Y-4.2927
X5.5033Y-4.1467
X5.5316Y-4.114
T3
X4.1634Y-3.9055
X4.3602Y-3.9055
T4
X1.6145Y-4.2575
X1.6852Y-4.1868
X5.63Y-4.012
X5.63Y-4.112
T5
X1.458Y-4.122
X1.458Y-4.222
X1.458Y-4.322
X1.458Y-4.422
X1.458Y-4.522
X1.4643Y-4.6421
X1.4643Y-4.957
X1.4643Y-5.0321
X1.4643Y-5.347
X1.465Y-5.81
X1.465Y-6.125
X1.5043Y-6.2021
X1.5043Y-6.517
X1.5543Y-5.4221
X1.5543Y-5.737
X1.5569Y-4.6702
X1.5569Y-5.0602
X1.5577Y-5.8381
X1.5969Y-6.2302
X1.6414Y-4.6421
X1.6414Y-4.957
X1.6414Y-5.0321
X1.6414Y-5.347
X1.6422Y-5.81
X1.6422Y-6.125
X1.6469Y-5.4502
X1.6814Y-6.2021
X1.6814Y-6.517
X1.7314Y-5.4221
X1.7314Y-5.737
X1.785Y-5.81
X1.785Y-6.125
X1.8214Y-4.6421
X1.8214Y-4.957
X1.8243Y-6.2021
X1.8243Y-6.517
X1.8643Y-5.0321
X1.8643Y-5.347
X1.8777Y-5.8381
X1.914Y-4.6702
X1.9169Y-6.2302
X1.9279Y-5.425
X1.9279Y-5.74
X1.9569Y-5.0602
X1.9622Y-5.81
X1.9622Y-6.125
X1.9986Y-4.6421
X1.9986Y-4.957
X2.0014Y-6.2021
X2.0014Y-6.517
X2.0205Y-5.4531
X2.0414Y-5.0321
X2.0414Y-5.347
X2.105Y-5.425
X2.105Y-5.74
X2.1414Y-4.6424
X2.1414Y-4.9574
X2.1443Y-5.8121
X2.1443Y-6.127
X2.1443Y-6.2021
X2.1443Y-6.517
X2.1843Y-5.0321
X2.1843Y-5.347
X2.234Y-4.6705
X2.2369Y-5.8402
X2.2369Y-6.2302
X2.2479Y-5.425
X2.2479Y-5.74
X2.2769Y-5.0602
X2.3186Y-4.6424
X2.3186Y-4.9574
X2.3214Y-5.8121
X2.3214Y-6.127
X2.3214Y-6.2021
X2.3214Y-6.517
X2.3405Y-5.4531
X2.3614Y-5.0321
X2.3614Y-5.347
X2.365Y-3.862
X2.425Y-5.425
X2.425Y-5.74
X2.4614Y-4.6421
X2.4614Y-4.957
X2.4643Y-5.8121
X2.4643Y-6.127
X2.4643Y-6.2021
X2.4643Y-6.517
X2.5043Y-5.0321
X2.5043Y-5.347
X2.5422Y-3.862
X2.554Y-4.6702
X2.5569Y-5.8402
X2.5569Y-6.2302
X2.5679Y-5.425
X2.5679Y-5.74
X2.5969Y-5.0602
X2.6386Y-4.6421
X2.6386Y-4.957
X2.6414Y-5.8121
X2.6414Y-6.127
X2.6414Y-6.2021
X2.6414Y-6.517
X2.6605Y-5.4531
X2.6814Y-5.0321
X2.6814Y-5.347
X2.745Y-5.425
X2.745Y-5.74
X2.7606Y-6.2099
X2.78Y-3.862
X2.78Y-3.962
X2.7814Y-4.6421
X2.7814Y-4.957
X2.7843Y-5.8121
X2.7843Y-6.127
X2.8243Y-5.0321
X2.8243Y-5.347
X2.874Y-4.6702
X2.8769Y-5.8402
X2.88Y-3.862
X2.88Y-3.962
X2.8879Y-5.425
X2.8879Y-5.74
X2.8963Y-6.2099
X2.9169Y-5.0602
X2.9409Y-6.3902
X2.9586Y-4.6421
X2.9586Y-4.957
X2.9614Y-5.8121
X2.9614Y-6.127
X2.98Y-3.862
X2.98Y-3.962
X2.9805Y-5.4531
X3.0014Y-5.0321
X3.0014Y-5.347
X3.0356Y-6.2099
X3.065Y-5.425
X3.065Y-5.74
X3.0766Y-6.3902
X3.08Y-3.862
X3.08Y-3.962
X3.1014Y-4.6421
X3.1014Y-4.957
X3.1043Y-5.8121
X3.1043Y-6.127
X3.1443Y-5.0321
X3.1443Y-5.347
X3.18Y-3.862
X3.18Y-3.962
X3.194Y-4.6702
X3.1969Y-5.8402
X3.2079Y-5.425
X3.2079Y-5.74
X3.2159Y-6.3902
X3.2369Y-5.0602
X3.2786Y-4.6421
X3.2786Y-4.957
X3.28Y-3.862
X3.2814Y-5.8121
X3.2814Y-6.127
X3.3005Y-5.4531
X3.3214Y-5.0321
X3.3214Y-5.347
X3.38Y-3.862
X3.385Y-5.425
X3.385Y-5.74
X3.4214Y-4.6421
X3.4214Y-4.957
X3.4243Y-5.8121
X3.4243Y-6.127
X3.4643Y-5.0321
X3.4643Y-5.347
X3.48Y-3.862
X3.514Y-4.6702
X3.5169Y-5.8402
X3.5279Y-5.425
X3.5279Y-5.74
X3.5569Y-5.0602
X3.58Y-3.862
X3.5986Y-4.6421
X3.5986Y-4.957
X3.6014Y-5.8121
X3.6014Y-6.127
X3.6079Y-6.2021
X3.6079Y-6.517
X3.6205Y-5.4531
X3.6414Y-5.0321
X3.6414Y-5.347
X3.68Y-3.862
X3.7005Y-6.2302
X3.705Y-5.425
X3.705Y-5.74
X3.7414Y-4.6421
X3.7414Y-4.957
X3.7443Y-5.8121
X3.7443Y-6.127
X3.78Y-3.862
X3.7843Y-5.0321
X3.7843Y-5.347
X3.785Y-6.2021
X3.785Y-6.517
X3.834Y-4.6702
X3.8369Y-5.8402
X3.8479Y-5.425
X3.8479Y-5.74
X3.8769Y-5.0602
X3.88Y-3.862
X3.88Y-3.962
X3.9186Y-4.6421
X3.9186Y-4.957
X3.9214Y-5.8121
X3.9214Y-6.127
X3.9405Y-5.4531
X3.9614Y-5.0321
X3.9614Y-5.347
X4.025Y-5.425
X4.025Y-5.74
X4.0614Y-4.6421
X4.0614Y-4.957
X4.0643Y-5.814
X4.0643Y-6.129
X4.1043Y-5.0321
X4.1043Y-5.347
X4.1106Y-6.2099
X4.154Y-4.6702
X4.1569Y-5.8421
X4.1679Y-5.425
X4.1679Y-5.74
X4.1969Y-5.0602
X4.2386Y-4.6421
X4.2386Y-4.957
X4.2414Y-5.814
X4.2414Y-6.129
X4.2463Y-6.2099
X4.2605Y-5.4531
X4.2814Y-5.0321
X4.2814Y-5.347
X4.2909Y-6.3902
X4.345Y-5.425
X4.345Y-5.74
X4.3814Y-4.6421
X4.3814Y-4.957
X4.3843Y-5.8121
X4.3843Y-6.127
X4.4243Y-5.0321
X4.4243Y-5.347
X4.4266Y-6.3902
X4.474Y-4.6702
X4.4769Y-5.8402
X4.4879Y-5.425
X4.4879Y-5.74
X4.5169Y-5.0602
X4.5586Y-4.6421
X4.5586Y-4.957
X4.5614Y-5.8121
X4.5614Y-6.127
X4.5805Y-5.4531
X4.6014Y-5.0321
X4.6014Y-5.347
X4.626Y-4.0457
X4.6288Y-3.81
X4.665Y-5.425
X4.665Y-5.74
X4.6943Y-6.2021
X4.6943Y-6.517
X4.7014Y-4.6421
X4.7014Y-4.957
X4.7043Y-5.8121
X4.7043Y-6.127
X4.7244Y-4.0457
X4.7288Y-3.81
X4.7443Y-5.0321
X4.7443Y-5.347
X4.7869Y-6.2302
X4.794Y-4.6702
X4.7969Y-5.8402
X4.8079Y-5.425
X4.8079Y-5.74
X4.8369Y-5.0602
X4.8714Y-6.2021
X4.8714Y-6.517
X4.8786Y-4.6421
X4.8786Y-4.957
X4.8814Y-5.8121
X4.8814Y-6.127
X4.9005Y-5.4531
X4.9214Y-5.0321
X4.9214Y-5.347
X4.985Y-5.425
X4.985Y-5.74
X5.0143Y-6.2021
X5.0143Y-6.517
X5.0214Y-4.6421
X5.0214Y-4.957
X5.0243Y-5.8121
X5.0243Y-6.127
X5.0643Y-5.0321
X5.0643Y-5.347
X5.1069Y-6.2302
X5.114Y-4.6702
X5.1169Y-5.8402
X5.1279Y-5.4291
X5.1279Y-5.7441
X5.1569Y-5.0602
X5.1914Y-6.2021
X5.1914Y-6.517
X5.1986Y-4.6421
X5.1986Y-4.957
X5.2014Y-5.8121
X5.2014Y-6.127
X5.2205Y-5.4572
X5.2414Y-5.0321
X5.2414Y-5.347
X5.305Y-5.4291
X5.305Y-5.7441
X5.3343Y-5.8121
X5.3343Y-6.127
X5.3343Y-6.2021
X5.3343Y-6.517
X5.3414Y-4.6421
X5.3414Y-4.957
X5.3843Y-5.0321
X5.3843Y-5.347
X5.4269Y-5.8402
X5.4269Y-6.2302
X5.434Y-4.6702
X5.4494Y-5.4321
X5.4494Y-5.747
X5.4769Y-5.0602
X5.5114Y-5.8121
X5.5114Y-6.127
X5.5114Y-6.2021
X5.5114Y-6.517
X5.5186Y-4.6421
X5.5186Y-4.957
X5.542Y-5.4602
X5.5614Y-5.0321
X5.5614Y-5.347
X5.6265Y-5.4321
X5.6265Y-5.747
X5.6543Y-6.2021
X5.6543Y-6.517
X5.7469Y-6.2302
X5.7743Y-4.6421
X5.7743Y-4.957
X5.7743Y-5.0321
X5.7743Y-5.347
X5.7743Y-5.4321
X5.7743Y-5.747
X5.7743Y-5.8221
X5.7743Y-6.137
X5.8314Y-6.2021
X5.8314Y-6.517
X5.8669Y-4.6702
X5.8669Y-5.0602
X5.8669Y-5.4602
X5.8669Y-5.8502
X5.9514Y-4.6421
X5.9514Y-4.957
X5.9514Y-5.0321
X5.9514Y-5.347
X5.9514Y-5.4321
X5.9514Y-5.747
X5.9514Y-5.8221
X5.9514Y-6.137
T6
X2.3158Y-3.9604
X2.5914Y-3.9604
X2.995Y-6.445
X3.0621Y-6.5121
X3.1306Y-6.445
X3.1978Y-6.5121
X3.27Y-6.445
X3.3371Y-6.5121
X4.345Y-6.445
X4.4121Y-6.5121
X4.4806Y-6.445
X4.5478Y-6.5121
T7
X1.55Y-3.95
X4.0Y-6.35
X5.85Y-3.95
T8
X5.0158Y-4.1553
T9
X4.7874Y-4.1244
T10
X1.425Y-5.575
X2.175Y-4.55
X2.825Y-6.475
X3.4Y-6.35
X4.475Y-6.3
X5.0926Y-4.4435
X5.65Y-4.9
X5.65Y-6.0
T2
G00X4.124Y-3.813
M15
G01X4.124Y-3.7854
M16
G05
G00X4.3996Y-3.7854
M15
G01X4.3996Y-3.813
M16
G05
T0
M30
