%TF.GenerationSoftware,KiCad,Pcbnew,6.0.0-rc1-unknown-d76c6bc884~144~ubuntu21.10.1*%
%TF.CreationDate,2021-11-30T16:14:45+00:00*%
%TF.ProjectId,tad2_bottom,74616432-5f62-46f7-9474-6f6d2e6b6963,rev?*%
%TF.SameCoordinates,Original*%
%TF.FileFunction,Soldermask,Bot*%
%TF.FilePolarity,Negative*%
%FSLAX46Y46*%
G04 Gerber Fmt 4.6, Leading zero omitted, Abs format (unit mm)*
G04 Created by KiCad (PCBNEW 6.0.0-rc1-unknown-d76c6bc884~144~ubuntu21.10.1) date 2021-11-30 16:14:45*
%MOMM*%
%LPD*%
G01*
G04 APERTURE LIST*
G04 Aperture macros list*
%AMRoundRect*
0 Rectangle with rounded corners*
0 $1 Rounding radius*
0 $2 $3 $4 $5 $6 $7 $8 $9 X,Y pos of 4 corners*
0 Add a 4 corners polygon primitive as box body*
4,1,4,$2,$3,$4,$5,$6,$7,$8,$9,$2,$3,0*
0 Add four circle primitives for the rounded corners*
1,1,$1+$1,$2,$3*
1,1,$1+$1,$4,$5*
1,1,$1+$1,$6,$7*
1,1,$1+$1,$8,$9*
0 Add four rect primitives between the rounded corners*
20,1,$1+$1,$2,$3,$4,$5,0*
20,1,$1+$1,$4,$5,$6,$7,0*
20,1,$1+$1,$6,$7,$8,$9,0*
20,1,$1+$1,$8,$9,$2,$3,0*%
%AMRotRect*
0 Rectangle, with rotation*
0 The origin of the aperture is its center*
0 $1 length*
0 $2 width*
0 $3 Rotation angle, in degrees counterclockwise*
0 Add horizontal line*
21,1,$1,$2,0,0,$3*%
G04 Aperture macros list end*
%ADD10C,1.500000*%
%ADD11R,1.200000X0.900000*%
%ADD12R,1.200000X0.958000*%
%ADD13C,1.700000*%
%ADD14R,1.700000X1.700000*%
%ADD15O,1.700000X1.700000*%
%ADD16C,2.000000*%
%ADD17C,2.100000*%
%ADD18C,2.200000*%
%ADD19C,5.000000*%
%ADD20C,1.450000*%
%ADD21O,1.200000X1.900000*%
%ADD22C,0.800000*%
%ADD23RotRect,1.800000X1.800000X45.000000*%
%ADD24C,1.800000*%
%ADD25R,1.800000X1.800000*%
%ADD26C,1.200000*%
%ADD27RoundRect,0.250000X0.600000X0.750000X-0.600000X0.750000X-0.600000X-0.750000X0.600000X-0.750000X0*%
%ADD28O,1.700000X2.000000*%
%ADD29C,1.000000*%
%ADD30RoundRect,0.250000X-0.450000X0.350000X-0.450000X-0.350000X0.450000X-0.350000X0.450000X0.350000X0*%
%ADD31RoundRect,0.250000X0.337500X0.475000X-0.337500X0.475000X-0.337500X-0.475000X0.337500X-0.475000X0*%
%ADD32RoundRect,0.250000X-0.475000X0.337500X-0.475000X-0.337500X0.475000X-0.337500X0.475000X0.337500X0*%
%ADD33RoundRect,0.250000X-0.350000X0.275000X-0.350000X-0.275000X0.350000X-0.275000X0.350000X0.275000X0*%
G04 APERTURE END LIST*
D10*
%TO.C,S_'1*%
X130248000Y-137899000D03*
X134748000Y-145899000D03*
X134748000Y-137899000D03*
X130248000Y-145899000D03*
D11*
X132588000Y-142977000D03*
D12*
X132588000Y-139648000D03*
D13*
X132600500Y-138613000D03*
%TD*%
D10*
%TO.C,S_;1*%
X122120000Y-137795000D03*
X126620000Y-145795000D03*
X126620000Y-137795000D03*
D11*
X124460000Y-142873000D03*
D10*
X122120000Y-145795000D03*
D13*
X124472500Y-138509000D03*
D12*
X124460000Y-139544000D03*
%TD*%
D10*
%TO.C,S_ENTER1*%
X146666000Y-137975000D03*
X151166000Y-145975000D03*
X151166000Y-137975000D03*
D11*
X149006000Y-143053000D03*
D10*
X146666000Y-145975000D03*
D13*
X149018500Y-138689000D03*
D12*
X149006000Y-139724000D03*
%TD*%
D14*
%TO.C,J4*%
X37033200Y-104698800D03*
D15*
X37033200Y-107238800D03*
X37033200Y-109778800D03*
X37033200Y-112318800D03*
X37033200Y-114858800D03*
%TD*%
D16*
%TO.C,*%
X98552000Y-98094800D03*
%TD*%
%TO.C,*%
X73152000Y-98094800D03*
%TD*%
D10*
%TO.C,S_MAC1*%
X143618000Y-157533000D03*
X148118000Y-165533000D03*
X148118000Y-157533000D03*
D11*
X145958000Y-162611000D03*
D10*
X143618000Y-165533000D03*
D12*
X145958000Y-159282000D03*
D13*
X145970500Y-158247000D03*
%TD*%
D10*
%TO.C,S_O1*%
X112376000Y-127815000D03*
X116876000Y-135815000D03*
X116876000Y-127815000D03*
X112376000Y-135815000D03*
D11*
X114716000Y-132893000D03*
D13*
X114728500Y-128529000D03*
D12*
X114716000Y-129564000D03*
%TD*%
D10*
%TO.C,S_[1*%
X128632000Y-127815000D03*
X133132000Y-127815000D03*
X133132000Y-135815000D03*
D11*
X130972000Y-132893000D03*
D10*
X128632000Y-135815000D03*
D13*
X130984500Y-128529000D03*
D12*
X130972000Y-129564000D03*
%TD*%
D17*
%TO.C,H8*%
X143510000Y-124460000D03*
%TD*%
%TO.C,H6*%
X86360000Y-161290000D03*
%TD*%
D10*
%TO.C,S_TAB1*%
X37192000Y-127815000D03*
X41692000Y-127815000D03*
X41692000Y-135815000D03*
X37192000Y-135815000D03*
D11*
X39532000Y-132893000D03*
D13*
X39544500Y-128529000D03*
D12*
X39532000Y-129564000D03*
%TD*%
D10*
%TO.C,S_8*%
X103160000Y-117909000D03*
X107660000Y-117909000D03*
X107660000Y-125909000D03*
X103160000Y-125909000D03*
D11*
X105500000Y-122987000D03*
D13*
X105512500Y-118623000D03*
D12*
X105500000Y-119658000D03*
%TD*%
D10*
%TO.C,S_+1*%
X135672000Y-117909000D03*
X140172000Y-125909000D03*
X140172000Y-117909000D03*
D11*
X138012000Y-122987000D03*
D10*
X135672000Y-125909000D03*
D13*
X138024500Y-118623000D03*
D12*
X138012000Y-119658000D03*
%TD*%
D10*
%TO.C,S_3*%
X62520000Y-117909000D03*
X67020000Y-117909000D03*
X67020000Y-125909000D03*
X62520000Y-125909000D03*
D11*
X64860000Y-122987000D03*
D13*
X64872500Y-118623000D03*
D12*
X64860000Y-119658000D03*
%TD*%
D10*
%TO.C,S_RSH1*%
X146666000Y-147881000D03*
X151166000Y-155881000D03*
X151166000Y-147881000D03*
D11*
X149006000Y-152959000D03*
D10*
X146666000Y-155881000D03*
D12*
X149006000Y-149630000D03*
D13*
X149018500Y-148595000D03*
%TD*%
D10*
%TO.C,S_X1*%
X62592000Y-147627000D03*
X67092000Y-147627000D03*
X67092000Y-155627000D03*
X62592000Y-155627000D03*
D11*
X64932000Y-152705000D03*
D13*
X64944500Y-148341000D03*
D12*
X64932000Y-149376000D03*
%TD*%
D16*
%TO.C,*%
X88392000Y-98094800D03*
%TD*%
D10*
%TO.C,S_I1*%
X104248000Y-127815000D03*
X108748000Y-135815000D03*
X108748000Y-127815000D03*
D11*
X106588000Y-132893000D03*
D10*
X104248000Y-135815000D03*
D12*
X106588000Y-129564000D03*
D13*
X106600500Y-128529000D03*
%TD*%
D10*
%TO.C,S_D1*%
X65224000Y-137795000D03*
X69724000Y-145795000D03*
X69724000Y-137795000D03*
X65224000Y-145795000D03*
D11*
X67564000Y-142873000D03*
D13*
X67576500Y-138509000D03*
D12*
X67564000Y-139544000D03*
%TD*%
D16*
%TO.C,*%
X73152000Y-100634800D03*
%TD*%
D10*
%TO.C,S_CTR1*%
X39478000Y-137721000D03*
X43978000Y-137721000D03*
X43978000Y-145721000D03*
D11*
X41818000Y-142799000D03*
D10*
X39478000Y-145721000D03*
D12*
X41818000Y-139470000D03*
D13*
X41830500Y-138435000D03*
%TD*%
D10*
%TO.C,S_L1*%
X113992000Y-137795000D03*
X118492000Y-145795000D03*
X118492000Y-137795000D03*
D11*
X116332000Y-142873000D03*
D10*
X113992000Y-145795000D03*
D13*
X116344500Y-138509000D03*
D12*
X116332000Y-139544000D03*
%TD*%
D10*
%TO.C,S_J1*%
X97736000Y-137795000D03*
X102236000Y-145795000D03*
X102236000Y-137795000D03*
D11*
X100076000Y-142873000D03*
D10*
X97736000Y-145795000D03*
D12*
X100076000Y-139544000D03*
D13*
X100088500Y-138509000D03*
%TD*%
D16*
%TO.C,*%
X96012000Y-98094800D03*
%TD*%
D10*
%TO.C,S_T1*%
X79864000Y-127815000D03*
X84364000Y-127815000D03*
X84364000Y-135815000D03*
D11*
X82204000Y-132893000D03*
D10*
X79864000Y-135815000D03*
D13*
X82216500Y-128529000D03*
D12*
X82204000Y-129564000D03*
%TD*%
D10*
%TO.C,S_2*%
X54392000Y-117917000D03*
X58892000Y-117917000D03*
X58892000Y-125917000D03*
X54392000Y-125917000D03*
D11*
X56732000Y-122995000D03*
D13*
X56744500Y-118631000D03*
D12*
X56732000Y-119666000D03*
%TD*%
D16*
%TO.C,*%
X93472000Y-98094800D03*
%TD*%
D10*
%TO.C,S_SPC1*%
X91640000Y-157533000D03*
X96140000Y-165533000D03*
X96140000Y-157533000D03*
X91640000Y-165533000D03*
D11*
X93980000Y-162611000D03*
D12*
X93980000Y-159282000D03*
D13*
X93992500Y-158247000D03*
%TD*%
D10*
%TO.C,S_LSH1*%
X37212000Y-147574000D03*
X41712000Y-155574000D03*
X41712000Y-147574000D03*
X37212000Y-155574000D03*
D11*
X39552000Y-152652000D03*
D12*
X39552000Y-149323000D03*
D13*
X39564500Y-148288000D03*
%TD*%
D10*
%TO.C,S_RFN1*%
X135490000Y-157533000D03*
X139990000Y-165533000D03*
X139990000Y-157533000D03*
D11*
X137830000Y-162611000D03*
D10*
X135490000Y-165533000D03*
D13*
X137842500Y-158247000D03*
D12*
X137830000Y-159282000D03*
%TD*%
D10*
%TO.C,S_\u005C1*%
X138414000Y-137975000D03*
X142914000Y-145975000D03*
X142914000Y-137975000D03*
X138414000Y-145975000D03*
D11*
X140754000Y-143053000D03*
D13*
X140766500Y-138689000D03*
D12*
X140754000Y-139724000D03*
%TD*%
D10*
%TO.C,S_1*%
X46264000Y-117909000D03*
X50764000Y-125909000D03*
X50764000Y-117909000D03*
D11*
X48604000Y-122987000D03*
D10*
X46264000Y-125909000D03*
D13*
X48616500Y-118623000D03*
D12*
X48604000Y-119658000D03*
%TD*%
D17*
%TO.C,H11*%
X71755000Y-164465000D03*
%TD*%
D10*
%TO.C,S_/1*%
X127616000Y-147627000D03*
X132116000Y-147627000D03*
X132116000Y-155627000D03*
X127616000Y-155627000D03*
D11*
X129956000Y-152705000D03*
D13*
X129968500Y-148341000D03*
D12*
X129956000Y-149376000D03*
%TD*%
D10*
%TO.C,S_7*%
X95032000Y-117909000D03*
X99532000Y-125909000D03*
X99532000Y-117909000D03*
X95032000Y-125909000D03*
D11*
X97372000Y-122987000D03*
D13*
X97384500Y-118623000D03*
D12*
X97372000Y-119658000D03*
%TD*%
D10*
%TO.C,S_P1*%
X120504000Y-127815000D03*
X125004000Y-127815000D03*
X125004000Y-135815000D03*
X120504000Y-135815000D03*
D11*
X122844000Y-132893000D03*
D12*
X122844000Y-129564000D03*
D13*
X122856500Y-128529000D03*
%TD*%
D18*
%TO.C,POWER1*%
X58821000Y-100594800D03*
X65821000Y-100594800D03*
D13*
X60071000Y-98094800D03*
X64571000Y-98094800D03*
%TD*%
D10*
%TO.C,S_-1*%
X127544000Y-117909000D03*
X132044000Y-125909000D03*
X132044000Y-117909000D03*
X127544000Y-125909000D03*
D11*
X129884000Y-122987000D03*
D12*
X129884000Y-119658000D03*
D13*
X129896500Y-118623000D03*
%TD*%
D10*
%TO.C,S_]1*%
X136760000Y-127815000D03*
X141260000Y-127815000D03*
X141260000Y-135815000D03*
D11*
X139100000Y-132893000D03*
D10*
X136760000Y-135815000D03*
D12*
X139100000Y-129564000D03*
D13*
X139112500Y-128529000D03*
%TD*%
D16*
%TO.C,S_MB2*%
X81224154Y-165408154D03*
D13*
X78145764Y-162312087D03*
D16*
X79517905Y-163701905D03*
D13*
X73565834Y-157732156D03*
%TD*%
D19*
%TO.C,H2*%
X148590000Y-100330000D03*
%TD*%
D10*
%TO.C,S_U1*%
X96120000Y-127815000D03*
X100620000Y-127815000D03*
X100620000Y-135815000D03*
X96120000Y-135815000D03*
D11*
X98460000Y-132893000D03*
D12*
X98460000Y-129564000D03*
D13*
X98472500Y-128529000D03*
%TD*%
D17*
%TO.C,H4*%
X36195000Y-141605000D03*
%TD*%
D20*
%TO.C,J2*%
X110750000Y-99200000D03*
D21*
X111750000Y-96500000D03*
X104750000Y-96500000D03*
D20*
X105750000Y-99200000D03*
%TD*%
D10*
%TO.C,S_RIG1*%
X127362000Y-157533000D03*
X131862000Y-157533000D03*
X131862000Y-165533000D03*
D11*
X129702000Y-162611000D03*
D10*
X127362000Y-165533000D03*
D12*
X129702000Y-159282000D03*
D13*
X129714500Y-158247000D03*
%TD*%
D10*
%TO.C,S_LHY1*%
X38208000Y-157533000D03*
X42708000Y-157533000D03*
X42708000Y-165533000D03*
X38208000Y-165533000D03*
D11*
X40548000Y-162611000D03*
D13*
X40560500Y-158247000D03*
D12*
X40548000Y-159282000D03*
%TD*%
D16*
%TO.C,*%
X75692000Y-100634800D03*
%TD*%
D10*
%TO.C,S_.1*%
X119488000Y-147627000D03*
X123988000Y-155627000D03*
X123988000Y-147627000D03*
D11*
X121828000Y-152705000D03*
D10*
X119488000Y-155627000D03*
D12*
X121828000Y-149376000D03*
D13*
X121840500Y-148341000D03*
%TD*%
D16*
%TO.C,*%
X98552000Y-100634800D03*
%TD*%
%TO.C,*%
X78232000Y-98094800D03*
%TD*%
%TO.C,S_MB5*%
X115514154Y-165408154D03*
D13*
X112435764Y-162312087D03*
D16*
X113807905Y-163701905D03*
D13*
X107855834Y-157732156D03*
%TD*%
D10*
%TO.C,S_4*%
X70648000Y-117909000D03*
X75148000Y-125909000D03*
X75148000Y-117909000D03*
D11*
X72988000Y-122987000D03*
D10*
X70648000Y-125909000D03*
D12*
X72988000Y-119658000D03*
D13*
X73000500Y-118623000D03*
%TD*%
D10*
%TO.C,S_C1*%
X70720000Y-147627000D03*
X75220000Y-147627000D03*
X75220000Y-155627000D03*
X70720000Y-155627000D03*
D11*
X73060000Y-152705000D03*
D13*
X73072500Y-148341000D03*
D12*
X73060000Y-149376000D03*
%TD*%
D16*
%TO.C,*%
X75692000Y-98094800D03*
%TD*%
D10*
%TO.C,S_TIL1*%
X135490000Y-147627000D03*
X139990000Y-147627000D03*
X139990000Y-155627000D03*
X135490000Y-155627000D03*
D11*
X137830000Y-152705000D03*
D12*
X137830000Y-149376000D03*
D13*
X137842500Y-148341000D03*
%TD*%
D10*
%TO.C,S_H1*%
X89608000Y-137795000D03*
X94108000Y-137795000D03*
X94108000Y-145795000D03*
X89608000Y-145795000D03*
D11*
X91948000Y-142873000D03*
D13*
X91960500Y-138509000D03*
D12*
X91948000Y-139544000D03*
%TD*%
D22*
%TO.C,SW1*%
X127402000Y-105544800D03*
%TD*%
D17*
%TO.C,H7*%
X143510000Y-152400000D03*
%TD*%
D16*
%TO.C,*%
X83312000Y-98094800D03*
%TD*%
D17*
%TO.C,H10*%
X113665000Y-160020000D03*
%TD*%
D23*
%TO.C,D6*%
X41008439Y-108140361D03*
D24*
X42804490Y-106344310D03*
%TD*%
D10*
%TO.C,S_K1*%
X105864000Y-137795000D03*
X110364000Y-145795000D03*
X110364000Y-137795000D03*
D11*
X108204000Y-142873000D03*
D10*
X105864000Y-145795000D03*
D12*
X108204000Y-139544000D03*
D13*
X108216500Y-138509000D03*
%TD*%
D16*
%TO.C,*%
X80772000Y-100634800D03*
%TD*%
D19*
%TO.C,H3*%
X101600000Y-161290000D03*
%TD*%
D17*
%TO.C,H5*%
X55245000Y-115570000D03*
%TD*%
D10*
%TO.C,S_DOWN1*%
X62592000Y-157533000D03*
X67092000Y-157533000D03*
X67092000Y-165533000D03*
D11*
X64932000Y-162611000D03*
D10*
X62592000Y-165533000D03*
D13*
X64944500Y-158247000D03*
D12*
X64932000Y-159282000D03*
%TD*%
D10*
%TO.C,S_A1*%
X48968000Y-137795000D03*
X53468000Y-145795000D03*
X53468000Y-137795000D03*
X48968000Y-145795000D03*
D11*
X51308000Y-142873000D03*
D12*
X51308000Y-139544000D03*
D13*
X51320500Y-138509000D03*
%TD*%
D10*
%TO.C,S_BCK1*%
X146666000Y-127815000D03*
X151166000Y-135815000D03*
X151166000Y-127815000D03*
X146666000Y-135815000D03*
D11*
X149006000Y-132893000D03*
D12*
X149006000Y-129564000D03*
D13*
X149018500Y-128529000D03*
%TD*%
D16*
%TO.C,S_MB3*%
X84763154Y-165408154D03*
D13*
X81684764Y-162312087D03*
D16*
X83056905Y-163701905D03*
D13*
X77104834Y-157732156D03*
%TD*%
D10*
%TO.C,S_10*%
X119416000Y-117909000D03*
X123916000Y-125909000D03*
X123916000Y-117909000D03*
D11*
X121756000Y-122987000D03*
D10*
X119416000Y-125909000D03*
D12*
X121756000Y-119658000D03*
D13*
X121768500Y-118623000D03*
%TD*%
D10*
%TO.C,S_DEL1*%
X146666000Y-117909000D03*
X151166000Y-117909000D03*
X151166000Y-125909000D03*
X146666000Y-125909000D03*
D11*
X149006000Y-122987000D03*
D12*
X149006000Y-119658000D03*
D13*
X149018500Y-118623000D03*
%TD*%
D10*
%TO.C,S_R1*%
X71736000Y-127815000D03*
X76236000Y-127815000D03*
X76236000Y-135815000D03*
X71736000Y-135815000D03*
D11*
X74076000Y-132893000D03*
D13*
X74088500Y-128529000D03*
D12*
X74076000Y-129564000D03*
%TD*%
D10*
%TO.C,S_B1*%
X86976000Y-147627000D03*
X91476000Y-147627000D03*
X91476000Y-155627000D03*
X86976000Y-155627000D03*
D11*
X89316000Y-152705000D03*
D12*
X89316000Y-149376000D03*
D13*
X89328500Y-148341000D03*
%TD*%
D10*
%TO.C,S_Q1*%
X47352000Y-127815000D03*
X51852000Y-135815000D03*
X51852000Y-127815000D03*
D11*
X49692000Y-132893000D03*
D10*
X47352000Y-135815000D03*
D12*
X49692000Y-129564000D03*
D13*
X49704500Y-128529000D03*
%TD*%
D10*
%TO.C,S_M1*%
X103232000Y-147675500D03*
X107732000Y-155675500D03*
X107732000Y-147675500D03*
D11*
X105572000Y-152753500D03*
D10*
X103232000Y-155675500D03*
D12*
X105572000Y-149424500D03*
D13*
X105584500Y-148389500D03*
%TD*%
D16*
%TO.C,S_MB4*%
X112068154Y-165408154D03*
D13*
X108989764Y-162312087D03*
D16*
X110361905Y-163701905D03*
D13*
X104409834Y-157732156D03*
%TD*%
D10*
%TO.C,S_LEF1*%
X119234000Y-157533000D03*
X123734000Y-157533000D03*
X123734000Y-165533000D03*
D11*
X121574000Y-162611000D03*
D10*
X119234000Y-165533000D03*
D12*
X121574000Y-159282000D03*
D13*
X121586500Y-158247000D03*
%TD*%
D16*
%TO.C,*%
X80772000Y-98094800D03*
%TD*%
D10*
%TO.C,S_ESC1*%
X37192000Y-117909000D03*
X41692000Y-117909000D03*
X41692000Y-125909000D03*
D11*
X39532000Y-122987000D03*
D10*
X37192000Y-125909000D03*
D13*
X39544500Y-118623000D03*
D12*
X39532000Y-119658000D03*
%TD*%
D10*
%TO.C,S_W1*%
X55480000Y-127815000D03*
X59980000Y-135815000D03*
X59980000Y-127815000D03*
X55480000Y-135815000D03*
D11*
X57820000Y-132893000D03*
D12*
X57820000Y-129564000D03*
D13*
X57832500Y-128529000D03*
%TD*%
D10*
%TO.C,S_V1*%
X78848000Y-147627000D03*
X83348000Y-147627000D03*
X83348000Y-155627000D03*
D11*
X81188000Y-152705000D03*
D10*
X78848000Y-155627000D03*
D12*
X81188000Y-149376000D03*
D13*
X81200500Y-148341000D03*
%TD*%
D16*
%TO.C,*%
X90932000Y-98094800D03*
%TD*%
%TO.C,*%
X70612000Y-100634800D03*
%TD*%
D25*
%TO.C,D1*%
X143002000Y-104444800D03*
D24*
X143002000Y-101904800D03*
%TD*%
D10*
%TO.C,S_5*%
X78776000Y-117909000D03*
X83276000Y-125909000D03*
X83276000Y-117909000D03*
D11*
X81116000Y-122987000D03*
D10*
X78776000Y-125909000D03*
D12*
X81116000Y-119658000D03*
D13*
X81128500Y-118623000D03*
%TD*%
D17*
%TO.C,H9*%
X129352000Y-112864800D03*
%TD*%
D10*
%TO.C,S_Y1*%
X87992000Y-127815000D03*
X92492000Y-127815000D03*
X92492000Y-135815000D03*
X87992000Y-135815000D03*
D11*
X90332000Y-132893000D03*
D12*
X90332000Y-129564000D03*
D13*
X90344500Y-128529000D03*
%TD*%
D10*
%TO.C,S_G1*%
X81480000Y-137795000D03*
X85980000Y-137795000D03*
X85980000Y-145795000D03*
X81480000Y-145795000D03*
D11*
X83820000Y-142873000D03*
D12*
X83820000Y-139544000D03*
D13*
X83832500Y-138509000D03*
%TD*%
D10*
%TO.C,S_N1*%
X95104000Y-147627000D03*
X99604000Y-147627000D03*
X99604000Y-155627000D03*
X95104000Y-155627000D03*
D11*
X97444000Y-152705000D03*
D12*
X97444000Y-149376000D03*
D13*
X97456500Y-148341000D03*
%TD*%
D16*
%TO.C,S_MB1*%
X77778154Y-165408154D03*
D13*
X74699764Y-162312087D03*
D16*
X76071905Y-163701905D03*
D13*
X70119834Y-157732156D03*
%TD*%
D16*
%TO.C,*%
X78232000Y-100634800D03*
%TD*%
D10*
%TO.C,S_9*%
X111288000Y-117909000D03*
X115788000Y-117909000D03*
X115788000Y-125909000D03*
X111288000Y-125909000D03*
D11*
X113628000Y-122987000D03*
D12*
X113628000Y-119658000D03*
D13*
X113640500Y-118623000D03*
%TD*%
D16*
%TO.C,*%
X70612000Y-98094800D03*
%TD*%
D10*
%TO.C,S_ALT1*%
X45340000Y-147574000D03*
X49840000Y-147574000D03*
X49840000Y-155574000D03*
D11*
X47680000Y-152652000D03*
D10*
X45340000Y-155574000D03*
D12*
X47680000Y-149323000D03*
D13*
X47692500Y-148288000D03*
%TD*%
D19*
%TO.C,H1*%
X39370000Y-100330000D03*
%TD*%
D10*
%TO.C,S_6*%
X86904000Y-117909000D03*
X91404000Y-117909000D03*
X91404000Y-125909000D03*
D11*
X89244000Y-122987000D03*
D10*
X86904000Y-125909000D03*
D12*
X89244000Y-119658000D03*
D13*
X89256500Y-118623000D03*
%TD*%
D10*
%TO.C,S_LFN1*%
X46336000Y-157533000D03*
X50836000Y-157533000D03*
X50836000Y-165533000D03*
X46336000Y-165533000D03*
D11*
X48676000Y-162611000D03*
D13*
X48688500Y-158247000D03*
D12*
X48676000Y-159282000D03*
%TD*%
D16*
%TO.C,*%
X85852000Y-98094800D03*
%TD*%
D10*
%TO.C,S_S1*%
X57096000Y-137795000D03*
X61596000Y-145795000D03*
X61596000Y-137795000D03*
X57096000Y-145795000D03*
D11*
X59436000Y-142873000D03*
D12*
X59436000Y-139544000D03*
D13*
X59448500Y-138509000D03*
%TD*%
D10*
%TO.C,S_Z1*%
X54464000Y-147627000D03*
X58964000Y-155627000D03*
X58964000Y-147627000D03*
D11*
X56804000Y-152705000D03*
D10*
X54464000Y-155627000D03*
D13*
X56816500Y-148341000D03*
D12*
X56804000Y-149376000D03*
%TD*%
D10*
%TO.C,S_E1*%
X63608000Y-127815000D03*
X68108000Y-135815000D03*
X68108000Y-127815000D03*
X63608000Y-135815000D03*
D11*
X65948000Y-132893000D03*
D13*
X65960500Y-128529000D03*
D12*
X65948000Y-129564000D03*
%TD*%
D10*
%TO.C,S_UP1*%
X54464000Y-157533000D03*
X58964000Y-157533000D03*
X58964000Y-165533000D03*
X54464000Y-165533000D03*
D11*
X56804000Y-162611000D03*
D12*
X56804000Y-159282000D03*
D13*
X56816500Y-158247000D03*
%TD*%
D10*
%TO.C,S_\u002C1*%
X111360000Y-147627000D03*
X115860000Y-155627000D03*
X115860000Y-147627000D03*
D11*
X113700000Y-152705000D03*
D10*
X111360000Y-155627000D03*
D13*
X113712500Y-148341000D03*
D12*
X113700000Y-149376000D03*
%TD*%
D10*
%TO.C,S_F1*%
X73352000Y-137795000D03*
X77852000Y-145795000D03*
X77852000Y-137795000D03*
X73352000Y-145795000D03*
D11*
X75692000Y-142873000D03*
D13*
X75704500Y-138509000D03*
D12*
X75692000Y-139544000D03*
%TD*%
D26*
%TO.C,BT1*%
X121600000Y-104760000D03*
D27*
X120000000Y-102760000D03*
D28*
X117500000Y-102760000D03*
%TD*%
D14*
%TO.C,TH1*%
X117571600Y-96774000D03*
D15*
X120111600Y-96774000D03*
%TD*%
D29*
%TO.C,TP10*%
X46863000Y-110032800D03*
%TD*%
%TO.C,TP9*%
X44704000Y-110032800D03*
%TD*%
D30*
%TO.C,R7*%
X45593000Y-105984800D03*
X45593000Y-107984800D03*
%TD*%
%TO.C,R4*%
X140462000Y-105984800D03*
X140462000Y-107984800D03*
%TD*%
D31*
%TO.C,C2*%
X138537500Y-110794800D03*
X136462500Y-110794800D03*
%TD*%
D32*
%TO.C,C12*%
X132588000Y-101303000D03*
X132588000Y-103378000D03*
%TD*%
D33*
%TO.C,L1*%
X136750000Y-105350000D03*
X136750000Y-107650000D03*
%TD*%
M02*
