%TF.GenerationSoftware,KiCad,Pcbnew,6.0.0-rc1-unknown-d76c6bc884~144~ubuntu21.10.1*%
%TF.CreationDate,2021-11-30T16:14:45+00:00*%
%TF.ProjectId,tad2_bottom,74616432-5f62-46f7-9474-6f6d2e6b6963,rev?*%
%TF.SameCoordinates,Original*%
%TF.FileFunction,Legend,Bot*%
%TF.FilePolarity,Positive*%
%FSLAX46Y46*%
G04 Gerber Fmt 4.6, Leading zero omitted, Abs format (unit mm)*
G04 Created by KiCad (PCBNEW 6.0.0-rc1-unknown-d76c6bc884~144~ubuntu21.10.1) date 2021-11-30 16:14:45*
%MOMM*%
%LPD*%
G01*
G04 APERTURE LIST*
%ADD10C,0.150000*%
%ADD11C,0.100000*%
%ADD12C,0.120000*%
G04 APERTURE END LIST*
D10*
X139217400Y-104368600D02*
X135128000Y-104368600D01*
X135128000Y-104368600D02*
X135128000Y-108483400D01*
X135128000Y-108483400D02*
X139217400Y-108483400D01*
X139217400Y-108483400D02*
X139217400Y-104368600D01*
%TO.C,BM1*%
X138460171Y-105538609D02*
X138507790Y-105681466D01*
X138555409Y-105729085D01*
X138650647Y-105776704D01*
X138793504Y-105776704D01*
X138888742Y-105729085D01*
X138936361Y-105681466D01*
X138983980Y-105586228D01*
X138983980Y-105205276D01*
X137983980Y-105205276D01*
X137983980Y-105538609D01*
X138031600Y-105633847D01*
X138079219Y-105681466D01*
X138174457Y-105729085D01*
X138269695Y-105729085D01*
X138364933Y-105681466D01*
X138412552Y-105633847D01*
X138460171Y-105538609D01*
X138460171Y-105205276D01*
X138983980Y-106205276D02*
X137983980Y-106205276D01*
X138698266Y-106538609D01*
X137983980Y-106871942D01*
X138983980Y-106871942D01*
X138983980Y-107871942D02*
X138983980Y-107300514D01*
X138983980Y-107586228D02*
X137983980Y-107586228D01*
X138126838Y-107490990D01*
X138222076Y-107395752D01*
X138269695Y-107300514D01*
%TO.C,BT1*%
X119535714Y-107116571D02*
X119392857Y-107164190D01*
X119345238Y-107211809D01*
X119297619Y-107307047D01*
X119297619Y-107449904D01*
X119345238Y-107545142D01*
X119392857Y-107592761D01*
X119488095Y-107640380D01*
X119869047Y-107640380D01*
X119869047Y-106640380D01*
X119535714Y-106640380D01*
X119440476Y-106688000D01*
X119392857Y-106735619D01*
X119345238Y-106830857D01*
X119345238Y-106926095D01*
X119392857Y-107021333D01*
X119440476Y-107068952D01*
X119535714Y-107116571D01*
X119869047Y-107116571D01*
X119011904Y-106640380D02*
X118440476Y-106640380D01*
X118726190Y-107640380D02*
X118726190Y-106640380D01*
X117583333Y-107640380D02*
X118154761Y-107640380D01*
X117869047Y-107640380D02*
X117869047Y-106640380D01*
X117964285Y-106783238D01*
X118059523Y-106878476D01*
X118154761Y-106926095D01*
%TO.C,TH1*%
X120127314Y-98258380D02*
X119555885Y-98258380D01*
X119841600Y-99258380D02*
X119841600Y-98258380D01*
X119222552Y-99258380D02*
X119222552Y-98258380D01*
X119222552Y-98734571D02*
X118651123Y-98734571D01*
X118651123Y-99258380D02*
X118651123Y-98258380D01*
X117651123Y-99258380D02*
X118222552Y-99258380D01*
X117936838Y-99258380D02*
X117936838Y-98258380D01*
X118032076Y-98401238D01*
X118127314Y-98496476D01*
X118222552Y-98544095D01*
%TO.C,R7*%
X47645580Y-106818133D02*
X47169390Y-106484800D01*
X47645580Y-106246704D02*
X46645580Y-106246704D01*
X46645580Y-106627657D01*
X46693200Y-106722895D01*
X46740819Y-106770514D01*
X46836057Y-106818133D01*
X46978914Y-106818133D01*
X47074152Y-106770514D01*
X47121771Y-106722895D01*
X47169390Y-106627657D01*
X47169390Y-106246704D01*
X46645580Y-107151466D02*
X46645580Y-107818133D01*
X47645580Y-107389561D01*
%TO.C,R4*%
X142443466Y-107367180D02*
X142776800Y-106890990D01*
X143014895Y-107367180D02*
X143014895Y-106367180D01*
X142633942Y-106367180D01*
X142538704Y-106414800D01*
X142491085Y-106462419D01*
X142443466Y-106557657D01*
X142443466Y-106700514D01*
X142491085Y-106795752D01*
X142538704Y-106843371D01*
X142633942Y-106890990D01*
X143014895Y-106890990D01*
X141586323Y-106700514D02*
X141586323Y-107367180D01*
X141824419Y-106319561D02*
X142062514Y-107033847D01*
X141443466Y-107033847D01*
%TO.C,C2*%
X137666666Y-109671942D02*
X137714285Y-109719561D01*
X137857142Y-109767180D01*
X137952380Y-109767180D01*
X138095238Y-109719561D01*
X138190476Y-109624323D01*
X138238095Y-109529085D01*
X138285714Y-109338609D01*
X138285714Y-109195752D01*
X138238095Y-109005276D01*
X138190476Y-108910038D01*
X138095238Y-108814800D01*
X137952380Y-108767180D01*
X137857142Y-108767180D01*
X137714285Y-108814800D01*
X137666666Y-108862419D01*
X137285714Y-108862419D02*
X137238095Y-108814800D01*
X137142857Y-108767180D01*
X136904761Y-108767180D01*
X136809523Y-108814800D01*
X136761904Y-108862419D01*
X136714285Y-108957657D01*
X136714285Y-109052895D01*
X136761904Y-109195752D01*
X137333333Y-109767180D01*
X136714285Y-109767180D01*
%TO.C,C12*%
X131265142Y-101697642D02*
X131312761Y-101650023D01*
X131360380Y-101507166D01*
X131360380Y-101411928D01*
X131312761Y-101269071D01*
X131217523Y-101173833D01*
X131122285Y-101126214D01*
X130931809Y-101078595D01*
X130788952Y-101078595D01*
X130598476Y-101126214D01*
X130503238Y-101173833D01*
X130408000Y-101269071D01*
X130360380Y-101411928D01*
X130360380Y-101507166D01*
X130408000Y-101650023D01*
X130455619Y-101697642D01*
X131360380Y-102650023D02*
X131360380Y-102078595D01*
X131360380Y-102364309D02*
X130360380Y-102364309D01*
X130503238Y-102269071D01*
X130598476Y-102173833D01*
X130646095Y-102078595D01*
X130455619Y-103030976D02*
X130408000Y-103078595D01*
X130360380Y-103173833D01*
X130360380Y-103411928D01*
X130408000Y-103507166D01*
X130455619Y-103554785D01*
X130550857Y-103602404D01*
X130646095Y-103602404D01*
X130788952Y-103554785D01*
X131360380Y-102983357D01*
X131360380Y-103602404D01*
%TO.C,L1*%
X135958228Y-106427600D02*
X135958228Y-106141885D01*
X135358228Y-106141885D01*
X135958228Y-106941885D02*
X135958228Y-106599028D01*
X135958228Y-106770457D02*
X135358228Y-106770457D01*
X135443942Y-106713314D01*
X135501085Y-106656171D01*
X135529657Y-106599028D01*
D11*
%TO.C,S_'1*%
X132588000Y-140986000D02*
X132038000Y-140986000D01*
X132588000Y-141586000D02*
X132588000Y-142086000D01*
X132588000Y-140577000D02*
X132588000Y-140977000D01*
X132188000Y-141586000D02*
X132988000Y-141586000D01*
X132588000Y-140986000D02*
X133138000Y-140986000D01*
X132588000Y-140986000D02*
X132188000Y-141586000D01*
X132988000Y-141586000D02*
X132588000Y-140986000D01*
%TO.C,S_;1*%
X124460000Y-141482000D02*
X124460000Y-141982000D01*
X124460000Y-140473000D02*
X124460000Y-140873000D01*
X124860000Y-141482000D02*
X124460000Y-140882000D01*
X124460000Y-140882000D02*
X125010000Y-140882000D01*
X124060000Y-141482000D02*
X124860000Y-141482000D01*
X124460000Y-140882000D02*
X123910000Y-140882000D01*
X124460000Y-140882000D02*
X124060000Y-141482000D01*
%TO.C,S_ENTER1*%
X148606000Y-141662000D02*
X149406000Y-141662000D01*
X149006000Y-141662000D02*
X149006000Y-142162000D01*
X149006000Y-140653000D02*
X149006000Y-141053000D01*
X149006000Y-141062000D02*
X149556000Y-141062000D01*
X149006000Y-141062000D02*
X148606000Y-141662000D01*
X149406000Y-141662000D02*
X149006000Y-141062000D01*
X149006000Y-141062000D02*
X148456000Y-141062000D01*
%TO.C,S_MAC1*%
X145558000Y-161220000D02*
X146358000Y-161220000D01*
X145958000Y-160211000D02*
X145958000Y-160611000D01*
X146358000Y-161220000D02*
X145958000Y-160620000D01*
X145958000Y-161220000D02*
X145958000Y-161720000D01*
X145958000Y-160620000D02*
X145408000Y-160620000D01*
X145958000Y-160620000D02*
X145558000Y-161220000D01*
X145958000Y-160620000D02*
X146508000Y-160620000D01*
%TO.C,S_O1*%
X115116000Y-131502000D02*
X114716000Y-130902000D01*
X114716000Y-130902000D02*
X114166000Y-130902000D01*
X114716000Y-131502000D02*
X114716000Y-132002000D01*
X114716000Y-130902000D02*
X114316000Y-131502000D01*
X114716000Y-130493000D02*
X114716000Y-130893000D01*
X114316000Y-131502000D02*
X115116000Y-131502000D01*
X114716000Y-130902000D02*
X115266000Y-130902000D01*
%TO.C,S_[1*%
X130972000Y-131502000D02*
X130972000Y-132002000D01*
X131372000Y-131502000D02*
X130972000Y-130902000D01*
X130972000Y-130902000D02*
X130572000Y-131502000D01*
X130972000Y-130902000D02*
X130422000Y-130902000D01*
X130972000Y-130902000D02*
X131522000Y-130902000D01*
X130572000Y-131502000D02*
X131372000Y-131502000D01*
X130972000Y-130493000D02*
X130972000Y-130893000D01*
%TO.C,S_TAB1*%
X39532000Y-131502000D02*
X39532000Y-132002000D01*
X39532000Y-130902000D02*
X40082000Y-130902000D01*
X39532000Y-130493000D02*
X39532000Y-130893000D01*
X39532000Y-130902000D02*
X39132000Y-131502000D01*
X39132000Y-131502000D02*
X39932000Y-131502000D01*
X39532000Y-130902000D02*
X38982000Y-130902000D01*
X39932000Y-131502000D02*
X39532000Y-130902000D01*
%TO.C,S_8*%
X105900000Y-121596000D02*
X105500000Y-120996000D01*
X105500000Y-121596000D02*
X105500000Y-122096000D01*
X105500000Y-120996000D02*
X105100000Y-121596000D01*
X105500000Y-120996000D02*
X106050000Y-120996000D01*
X105100000Y-121596000D02*
X105900000Y-121596000D01*
X105500000Y-120996000D02*
X104950000Y-120996000D01*
X105500000Y-120587000D02*
X105500000Y-120987000D01*
%TO.C,S_+1*%
X138012000Y-120996000D02*
X137462000Y-120996000D01*
X138012000Y-120996000D02*
X137612000Y-121596000D01*
X137612000Y-121596000D02*
X138412000Y-121596000D01*
X138012000Y-121596000D02*
X138012000Y-122096000D01*
X138012000Y-120587000D02*
X138012000Y-120987000D01*
X138412000Y-121596000D02*
X138012000Y-120996000D01*
X138012000Y-120996000D02*
X138562000Y-120996000D01*
%TO.C,S_3*%
X64860000Y-120996000D02*
X65410000Y-120996000D01*
X64860000Y-121596000D02*
X64860000Y-122096000D01*
X64460000Y-121596000D02*
X65260000Y-121596000D01*
X65260000Y-121596000D02*
X64860000Y-120996000D01*
X64860000Y-120996000D02*
X64460000Y-121596000D01*
X64860000Y-120996000D02*
X64310000Y-120996000D01*
X64860000Y-120587000D02*
X64860000Y-120987000D01*
%TO.C,S_RSH1*%
X149006000Y-150968000D02*
X148606000Y-151568000D01*
X149006000Y-150968000D02*
X149556000Y-150968000D01*
X149406000Y-151568000D02*
X149006000Y-150968000D01*
X149006000Y-150968000D02*
X148456000Y-150968000D01*
X149006000Y-150559000D02*
X149006000Y-150959000D01*
X148606000Y-151568000D02*
X149406000Y-151568000D01*
X149006000Y-151568000D02*
X149006000Y-152068000D01*
%TO.C,S_X1*%
X64532000Y-151314000D02*
X65332000Y-151314000D01*
X64932000Y-150714000D02*
X64382000Y-150714000D01*
X64932000Y-150305000D02*
X64932000Y-150705000D01*
X65332000Y-151314000D02*
X64932000Y-150714000D01*
X64932000Y-151314000D02*
X64932000Y-151814000D01*
X64932000Y-150714000D02*
X64532000Y-151314000D01*
X64932000Y-150714000D02*
X65482000Y-150714000D01*
%TO.C,S_I1*%
X106988000Y-131502000D02*
X106588000Y-130902000D01*
X106588000Y-130902000D02*
X106188000Y-131502000D01*
X106188000Y-131502000D02*
X106988000Y-131502000D01*
X106588000Y-130902000D02*
X107138000Y-130902000D01*
X106588000Y-130902000D02*
X106038000Y-130902000D01*
X106588000Y-130493000D02*
X106588000Y-130893000D01*
X106588000Y-131502000D02*
X106588000Y-132002000D01*
%TO.C,S_D1*%
X67564000Y-140882000D02*
X68114000Y-140882000D01*
X67564000Y-140473000D02*
X67564000Y-140873000D01*
X67564000Y-141482000D02*
X67564000Y-141982000D01*
X67164000Y-141482000D02*
X67964000Y-141482000D01*
X67564000Y-140882000D02*
X67164000Y-141482000D01*
X67964000Y-141482000D02*
X67564000Y-140882000D01*
X67564000Y-140882000D02*
X67014000Y-140882000D01*
%TO.C,S_CTR1*%
X41818000Y-140808000D02*
X42368000Y-140808000D01*
X41818000Y-140808000D02*
X41268000Y-140808000D01*
X41818000Y-140399000D02*
X41818000Y-140799000D01*
X41818000Y-141408000D02*
X41818000Y-141908000D01*
X42218000Y-141408000D02*
X41818000Y-140808000D01*
X41418000Y-141408000D02*
X42218000Y-141408000D01*
X41818000Y-140808000D02*
X41418000Y-141408000D01*
%TO.C,S_L1*%
X116332000Y-140882000D02*
X116882000Y-140882000D01*
X116332000Y-140882000D02*
X115932000Y-141482000D01*
X116732000Y-141482000D02*
X116332000Y-140882000D01*
X116332000Y-140473000D02*
X116332000Y-140873000D01*
X115932000Y-141482000D02*
X116732000Y-141482000D01*
X116332000Y-141482000D02*
X116332000Y-141982000D01*
X116332000Y-140882000D02*
X115782000Y-140882000D01*
%TO.C,S_J1*%
X100076000Y-141482000D02*
X100076000Y-141982000D01*
X100476000Y-141482000D02*
X100076000Y-140882000D01*
X100076000Y-140473000D02*
X100076000Y-140873000D01*
X99676000Y-141482000D02*
X100476000Y-141482000D01*
X100076000Y-140882000D02*
X100626000Y-140882000D01*
X100076000Y-140882000D02*
X99676000Y-141482000D01*
X100076000Y-140882000D02*
X99526000Y-140882000D01*
%TO.C,S_T1*%
X81804000Y-131502000D02*
X82604000Y-131502000D01*
X82204000Y-130902000D02*
X81654000Y-130902000D01*
X82604000Y-131502000D02*
X82204000Y-130902000D01*
X82204000Y-130902000D02*
X82754000Y-130902000D01*
X82204000Y-130493000D02*
X82204000Y-130893000D01*
X82204000Y-130902000D02*
X81804000Y-131502000D01*
X82204000Y-131502000D02*
X82204000Y-132002000D01*
%TO.C,S_2*%
X56732000Y-120595000D02*
X56732000Y-120995000D01*
X56732000Y-121004000D02*
X56332000Y-121604000D01*
X57132000Y-121604000D02*
X56732000Y-121004000D01*
X56332000Y-121604000D02*
X57132000Y-121604000D01*
X56732000Y-121004000D02*
X57282000Y-121004000D01*
X56732000Y-121604000D02*
X56732000Y-122104000D01*
X56732000Y-121004000D02*
X56182000Y-121004000D01*
%TO.C,S_SPC1*%
X93580000Y-161220000D02*
X94380000Y-161220000D01*
X93980000Y-160620000D02*
X93430000Y-160620000D01*
X93980000Y-160211000D02*
X93980000Y-160611000D01*
X93980000Y-160620000D02*
X93580000Y-161220000D01*
X93980000Y-160620000D02*
X94530000Y-160620000D01*
X93980000Y-161220000D02*
X93980000Y-161720000D01*
X94380000Y-161220000D02*
X93980000Y-160620000D01*
%TO.C,S_LSH1*%
X39552000Y-150661000D02*
X40102000Y-150661000D01*
X39952000Y-151261000D02*
X39552000Y-150661000D01*
X39552000Y-151261000D02*
X39552000Y-151761000D01*
X39552000Y-150661000D02*
X39002000Y-150661000D01*
X39152000Y-151261000D02*
X39952000Y-151261000D01*
X39552000Y-150661000D02*
X39152000Y-151261000D01*
X39552000Y-150252000D02*
X39552000Y-150652000D01*
%TO.C,S_RFN1*%
X138230000Y-161220000D02*
X137830000Y-160620000D01*
X137830000Y-160620000D02*
X137430000Y-161220000D01*
X137830000Y-160211000D02*
X137830000Y-160611000D01*
X137830000Y-160620000D02*
X137280000Y-160620000D01*
X137830000Y-161220000D02*
X137830000Y-161720000D01*
X137830000Y-160620000D02*
X138380000Y-160620000D01*
X137430000Y-161220000D02*
X138230000Y-161220000D01*
%TO.C,S_\u005C1*%
X141154000Y-141662000D02*
X140754000Y-141062000D01*
X140754000Y-141062000D02*
X140204000Y-141062000D01*
X140754000Y-141062000D02*
X140354000Y-141662000D01*
X140754000Y-140653000D02*
X140754000Y-141053000D01*
X140754000Y-141662000D02*
X140754000Y-142162000D01*
X140354000Y-141662000D02*
X141154000Y-141662000D01*
X140754000Y-141062000D02*
X141304000Y-141062000D01*
%TO.C,S_1*%
X48604000Y-120996000D02*
X49154000Y-120996000D01*
X48604000Y-120587000D02*
X48604000Y-120987000D01*
X48604000Y-120996000D02*
X48204000Y-121596000D01*
X48604000Y-120996000D02*
X48054000Y-120996000D01*
X49004000Y-121596000D02*
X48604000Y-120996000D01*
X48204000Y-121596000D02*
X49004000Y-121596000D01*
X48604000Y-121596000D02*
X48604000Y-122096000D01*
%TO.C,S_/1*%
X129556000Y-151314000D02*
X130356000Y-151314000D01*
X130356000Y-151314000D02*
X129956000Y-150714000D01*
X129956000Y-150305000D02*
X129956000Y-150705000D01*
X129956000Y-150714000D02*
X129406000Y-150714000D01*
X129956000Y-151314000D02*
X129956000Y-151814000D01*
X129956000Y-150714000D02*
X129556000Y-151314000D01*
X129956000Y-150714000D02*
X130506000Y-150714000D01*
%TO.C,S_7*%
X97372000Y-121596000D02*
X97372000Y-122096000D01*
X96972000Y-121596000D02*
X97772000Y-121596000D01*
X97372000Y-120996000D02*
X97922000Y-120996000D01*
X97372000Y-120996000D02*
X96822000Y-120996000D01*
X97772000Y-121596000D02*
X97372000Y-120996000D01*
X97372000Y-120587000D02*
X97372000Y-120987000D01*
X97372000Y-120996000D02*
X96972000Y-121596000D01*
%TO.C,S_P1*%
X122844000Y-131502000D02*
X122844000Y-132002000D01*
X122844000Y-130493000D02*
X122844000Y-130893000D01*
X122444000Y-131502000D02*
X123244000Y-131502000D01*
X122844000Y-130902000D02*
X123394000Y-130902000D01*
X122844000Y-130902000D02*
X122294000Y-130902000D01*
X123244000Y-131502000D02*
X122844000Y-130902000D01*
X122844000Y-130902000D02*
X122444000Y-131502000D01*
%TO.C,S_-1*%
X129884000Y-120996000D02*
X129334000Y-120996000D01*
X129884000Y-121596000D02*
X129884000Y-122096000D01*
X130284000Y-121596000D02*
X129884000Y-120996000D01*
X129884000Y-120996000D02*
X129484000Y-121596000D01*
X129484000Y-121596000D02*
X130284000Y-121596000D01*
X129884000Y-120587000D02*
X129884000Y-120987000D01*
X129884000Y-120996000D02*
X130434000Y-120996000D01*
%TO.C,S_]1*%
X139100000Y-131502000D02*
X139100000Y-132002000D01*
X139100000Y-130902000D02*
X138700000Y-131502000D01*
X139100000Y-130493000D02*
X139100000Y-130893000D01*
X138700000Y-131502000D02*
X139500000Y-131502000D01*
X139100000Y-130902000D02*
X138550000Y-130902000D01*
X139100000Y-130902000D02*
X139650000Y-130902000D01*
X139500000Y-131502000D02*
X139100000Y-130902000D01*
%TO.C,S_U1*%
X98060000Y-131502000D02*
X98860000Y-131502000D01*
X98460000Y-130493000D02*
X98460000Y-130893000D01*
X98860000Y-131502000D02*
X98460000Y-130902000D01*
X98460000Y-130902000D02*
X97910000Y-130902000D01*
X98460000Y-130902000D02*
X99010000Y-130902000D01*
X98460000Y-131502000D02*
X98460000Y-132002000D01*
X98460000Y-130902000D02*
X98060000Y-131502000D01*
%TO.C,S_RIG1*%
X129702000Y-160620000D02*
X130252000Y-160620000D01*
X129702000Y-160211000D02*
X129702000Y-160611000D01*
X130102000Y-161220000D02*
X129702000Y-160620000D01*
X129302000Y-161220000D02*
X130102000Y-161220000D01*
X129702000Y-160620000D02*
X129302000Y-161220000D01*
X129702000Y-161220000D02*
X129702000Y-161720000D01*
X129702000Y-160620000D02*
X129152000Y-160620000D01*
%TO.C,S_LHY1*%
X40548000Y-160620000D02*
X39998000Y-160620000D01*
X40548000Y-160620000D02*
X40148000Y-161220000D01*
X40548000Y-161220000D02*
X40548000Y-161720000D01*
X40948000Y-161220000D02*
X40548000Y-160620000D01*
X40548000Y-160620000D02*
X41098000Y-160620000D01*
X40548000Y-160211000D02*
X40548000Y-160611000D01*
X40148000Y-161220000D02*
X40948000Y-161220000D01*
%TO.C,S_.1*%
X122228000Y-151314000D02*
X121828000Y-150714000D01*
X121828000Y-150714000D02*
X122378000Y-150714000D01*
X121828000Y-150714000D02*
X121278000Y-150714000D01*
X121828000Y-150305000D02*
X121828000Y-150705000D01*
X121828000Y-150714000D02*
X121428000Y-151314000D01*
X121828000Y-151314000D02*
X121828000Y-151814000D01*
X121428000Y-151314000D02*
X122228000Y-151314000D01*
%TO.C,S_4*%
X72988000Y-120587000D02*
X72988000Y-120987000D01*
X72988000Y-121596000D02*
X72988000Y-122096000D01*
X72588000Y-121596000D02*
X73388000Y-121596000D01*
X72988000Y-120996000D02*
X73538000Y-120996000D01*
X72988000Y-120996000D02*
X72438000Y-120996000D01*
X72988000Y-120996000D02*
X72588000Y-121596000D01*
X73388000Y-121596000D02*
X72988000Y-120996000D01*
%TO.C,S_C1*%
X73460000Y-151314000D02*
X73060000Y-150714000D01*
X73060000Y-150305000D02*
X73060000Y-150705000D01*
X73060000Y-150714000D02*
X72510000Y-150714000D01*
X73060000Y-150714000D02*
X73610000Y-150714000D01*
X73060000Y-150714000D02*
X72660000Y-151314000D01*
X73060000Y-151314000D02*
X73060000Y-151814000D01*
X72660000Y-151314000D02*
X73460000Y-151314000D01*
%TO.C,S_TIL1*%
X137430000Y-151314000D02*
X138230000Y-151314000D01*
X137830000Y-151314000D02*
X137830000Y-151814000D01*
X137830000Y-150714000D02*
X137280000Y-150714000D01*
X137830000Y-150714000D02*
X137430000Y-151314000D01*
X137830000Y-150305000D02*
X137830000Y-150705000D01*
X138230000Y-151314000D02*
X137830000Y-150714000D01*
X137830000Y-150714000D02*
X138380000Y-150714000D01*
%TO.C,S_H1*%
X91948000Y-140473000D02*
X91948000Y-140873000D01*
X91948000Y-141482000D02*
X91948000Y-141982000D01*
X92348000Y-141482000D02*
X91948000Y-140882000D01*
X91548000Y-141482000D02*
X92348000Y-141482000D01*
X91948000Y-140882000D02*
X92498000Y-140882000D01*
X91948000Y-140882000D02*
X91548000Y-141482000D01*
X91948000Y-140882000D02*
X91398000Y-140882000D01*
%TO.C,S_K1*%
X108204000Y-140473000D02*
X108204000Y-140873000D01*
X108204000Y-140882000D02*
X107804000Y-141482000D01*
X108204000Y-140882000D02*
X108754000Y-140882000D01*
X108204000Y-141482000D02*
X108204000Y-141982000D01*
X107804000Y-141482000D02*
X108604000Y-141482000D01*
X108204000Y-140882000D02*
X107654000Y-140882000D01*
X108604000Y-141482000D02*
X108204000Y-140882000D01*
%TO.C,S_DOWN1*%
X64932000Y-160620000D02*
X64532000Y-161220000D01*
X64932000Y-160211000D02*
X64932000Y-160611000D01*
X64932000Y-161220000D02*
X64932000Y-161720000D01*
X65332000Y-161220000D02*
X64932000Y-160620000D01*
X64932000Y-160620000D02*
X64382000Y-160620000D01*
X64532000Y-161220000D02*
X65332000Y-161220000D01*
X64932000Y-160620000D02*
X65482000Y-160620000D01*
%TO.C,S_A1*%
X51308000Y-140882000D02*
X51858000Y-140882000D01*
X50908000Y-141482000D02*
X51708000Y-141482000D01*
X51708000Y-141482000D02*
X51308000Y-140882000D01*
X51308000Y-140882000D02*
X50758000Y-140882000D01*
X51308000Y-140473000D02*
X51308000Y-140873000D01*
X51308000Y-140882000D02*
X50908000Y-141482000D01*
X51308000Y-141482000D02*
X51308000Y-141982000D01*
%TO.C,S_BCK1*%
X149006000Y-131502000D02*
X149006000Y-132002000D01*
X149006000Y-130902000D02*
X148606000Y-131502000D01*
X149006000Y-130902000D02*
X148456000Y-130902000D01*
X149406000Y-131502000D02*
X149006000Y-130902000D01*
X149006000Y-130493000D02*
X149006000Y-130893000D01*
X148606000Y-131502000D02*
X149406000Y-131502000D01*
X149006000Y-130902000D02*
X149556000Y-130902000D01*
%TO.C,S_10*%
X121756000Y-120996000D02*
X122306000Y-120996000D01*
X122156000Y-121596000D02*
X121756000Y-120996000D01*
X121756000Y-120996000D02*
X121356000Y-121596000D01*
X121356000Y-121596000D02*
X122156000Y-121596000D01*
X121756000Y-120587000D02*
X121756000Y-120987000D01*
X121756000Y-120996000D02*
X121206000Y-120996000D01*
X121756000Y-121596000D02*
X121756000Y-122096000D01*
%TO.C,S_DEL1*%
X149006000Y-120996000D02*
X148456000Y-120996000D01*
X149006000Y-120996000D02*
X148606000Y-121596000D01*
X148606000Y-121596000D02*
X149406000Y-121596000D01*
X149006000Y-120587000D02*
X149006000Y-120987000D01*
X149406000Y-121596000D02*
X149006000Y-120996000D01*
X149006000Y-120996000D02*
X149556000Y-120996000D01*
X149006000Y-121596000D02*
X149006000Y-122096000D01*
%TO.C,S_R1*%
X74476000Y-131502000D02*
X74076000Y-130902000D01*
X74076000Y-130493000D02*
X74076000Y-130893000D01*
X74076000Y-131502000D02*
X74076000Y-132002000D01*
X74076000Y-130902000D02*
X74626000Y-130902000D01*
X73676000Y-131502000D02*
X74476000Y-131502000D01*
X74076000Y-130902000D02*
X73676000Y-131502000D01*
X74076000Y-130902000D02*
X73526000Y-130902000D01*
%TO.C,S_B1*%
X89316000Y-150714000D02*
X88766000Y-150714000D01*
X89316000Y-150714000D02*
X88916000Y-151314000D01*
X88916000Y-151314000D02*
X89716000Y-151314000D01*
X89316000Y-150714000D02*
X89866000Y-150714000D01*
X89716000Y-151314000D02*
X89316000Y-150714000D01*
X89316000Y-150305000D02*
X89316000Y-150705000D01*
X89316000Y-151314000D02*
X89316000Y-151814000D01*
%TO.C,S_Q1*%
X49692000Y-130902000D02*
X49142000Y-130902000D01*
X49692000Y-130902000D02*
X50242000Y-130902000D01*
X50092000Y-131502000D02*
X49692000Y-130902000D01*
X49692000Y-130493000D02*
X49692000Y-130893000D01*
X49292000Y-131502000D02*
X50092000Y-131502000D01*
X49692000Y-131502000D02*
X49692000Y-132002000D01*
X49692000Y-130902000D02*
X49292000Y-131502000D01*
%TO.C,S_M1*%
X105572000Y-150353500D02*
X105572000Y-150753500D01*
X105572000Y-150762500D02*
X105022000Y-150762500D01*
X105172000Y-151362500D02*
X105972000Y-151362500D01*
X105572000Y-150762500D02*
X105172000Y-151362500D01*
X105572000Y-151362500D02*
X105572000Y-151862500D01*
X105572000Y-150762500D02*
X106122000Y-150762500D01*
X105972000Y-151362500D02*
X105572000Y-150762500D01*
%TO.C,S_LEF1*%
X121574000Y-160620000D02*
X122124000Y-160620000D01*
X121574000Y-160620000D02*
X121024000Y-160620000D01*
X121574000Y-161220000D02*
X121574000Y-161720000D01*
X121574000Y-160211000D02*
X121574000Y-160611000D01*
X121974000Y-161220000D02*
X121574000Y-160620000D01*
X121174000Y-161220000D02*
X121974000Y-161220000D01*
X121574000Y-160620000D02*
X121174000Y-161220000D01*
%TO.C,S_ESC1*%
X39932000Y-121596000D02*
X39532000Y-120996000D01*
X39532000Y-121596000D02*
X39532000Y-122096000D01*
X39532000Y-120587000D02*
X39532000Y-120987000D01*
X39532000Y-120996000D02*
X38982000Y-120996000D01*
X39132000Y-121596000D02*
X39932000Y-121596000D01*
X39532000Y-120996000D02*
X40082000Y-120996000D01*
X39532000Y-120996000D02*
X39132000Y-121596000D01*
%TO.C,S_W1*%
X57820000Y-131502000D02*
X57820000Y-132002000D01*
X57820000Y-130902000D02*
X58370000Y-130902000D01*
X57820000Y-130902000D02*
X57270000Y-130902000D01*
X57820000Y-130902000D02*
X57420000Y-131502000D01*
X57820000Y-130493000D02*
X57820000Y-130893000D01*
X57420000Y-131502000D02*
X58220000Y-131502000D01*
X58220000Y-131502000D02*
X57820000Y-130902000D01*
%TO.C,S_V1*%
X81188000Y-150714000D02*
X80638000Y-150714000D01*
X81588000Y-151314000D02*
X81188000Y-150714000D01*
X81188000Y-150714000D02*
X80788000Y-151314000D01*
X81188000Y-150714000D02*
X81738000Y-150714000D01*
X81188000Y-150305000D02*
X81188000Y-150705000D01*
X81188000Y-151314000D02*
X81188000Y-151814000D01*
X80788000Y-151314000D02*
X81588000Y-151314000D01*
%TO.C,S_5*%
X81116000Y-121596000D02*
X81116000Y-122096000D01*
X81116000Y-120996000D02*
X80566000Y-120996000D01*
X81116000Y-120996000D02*
X80716000Y-121596000D01*
X80716000Y-121596000D02*
X81516000Y-121596000D01*
X81116000Y-120587000D02*
X81116000Y-120987000D01*
X81516000Y-121596000D02*
X81116000Y-120996000D01*
X81116000Y-120996000D02*
X81666000Y-120996000D01*
%TO.C,S_Y1*%
X89932000Y-131502000D02*
X90732000Y-131502000D01*
X90332000Y-130493000D02*
X90332000Y-130893000D01*
X90332000Y-130902000D02*
X90882000Y-130902000D01*
X90332000Y-130902000D02*
X89932000Y-131502000D01*
X90332000Y-130902000D02*
X89782000Y-130902000D01*
X90732000Y-131502000D02*
X90332000Y-130902000D01*
X90332000Y-131502000D02*
X90332000Y-132002000D01*
%TO.C,S_G1*%
X83820000Y-141482000D02*
X83820000Y-141982000D01*
X83420000Y-141482000D02*
X84220000Y-141482000D01*
X83820000Y-140882000D02*
X84370000Y-140882000D01*
X83820000Y-140882000D02*
X83270000Y-140882000D01*
X84220000Y-141482000D02*
X83820000Y-140882000D01*
X83820000Y-140473000D02*
X83820000Y-140873000D01*
X83820000Y-140882000D02*
X83420000Y-141482000D01*
%TO.C,S_N1*%
X97044000Y-151314000D02*
X97844000Y-151314000D01*
X97444000Y-150305000D02*
X97444000Y-150705000D01*
X97444000Y-151314000D02*
X97444000Y-151814000D01*
X97444000Y-150714000D02*
X97994000Y-150714000D01*
X97844000Y-151314000D02*
X97444000Y-150714000D01*
X97444000Y-150714000D02*
X97044000Y-151314000D01*
X97444000Y-150714000D02*
X96894000Y-150714000D01*
%TO.C,S_9*%
X113628000Y-121596000D02*
X113628000Y-122096000D01*
X114028000Y-121596000D02*
X113628000Y-120996000D01*
X113628000Y-120996000D02*
X114178000Y-120996000D01*
X113628000Y-120587000D02*
X113628000Y-120987000D01*
X113628000Y-120996000D02*
X113228000Y-121596000D01*
X113628000Y-120996000D02*
X113078000Y-120996000D01*
X113228000Y-121596000D02*
X114028000Y-121596000D01*
%TO.C,S_ALT1*%
X48080000Y-151261000D02*
X47680000Y-150661000D01*
X47680000Y-150252000D02*
X47680000Y-150652000D01*
X47680000Y-150661000D02*
X47130000Y-150661000D01*
X47680000Y-150661000D02*
X48230000Y-150661000D01*
X47680000Y-150661000D02*
X47280000Y-151261000D01*
X47280000Y-151261000D02*
X48080000Y-151261000D01*
X47680000Y-151261000D02*
X47680000Y-151761000D01*
%TO.C,S_6*%
X89244000Y-120996000D02*
X88694000Y-120996000D01*
X89244000Y-120996000D02*
X89794000Y-120996000D01*
X89644000Y-121596000D02*
X89244000Y-120996000D01*
X89244000Y-120996000D02*
X88844000Y-121596000D01*
X89244000Y-121596000D02*
X89244000Y-122096000D01*
X88844000Y-121596000D02*
X89644000Y-121596000D01*
X89244000Y-120587000D02*
X89244000Y-120987000D01*
%TO.C,S_LFN1*%
X48676000Y-161220000D02*
X48676000Y-161720000D01*
X48276000Y-161220000D02*
X49076000Y-161220000D01*
X49076000Y-161220000D02*
X48676000Y-160620000D01*
X48676000Y-160211000D02*
X48676000Y-160611000D01*
X48676000Y-160620000D02*
X48126000Y-160620000D01*
X48676000Y-160620000D02*
X48276000Y-161220000D01*
X48676000Y-160620000D02*
X49226000Y-160620000D01*
%TO.C,S_S1*%
X59436000Y-140882000D02*
X59036000Y-141482000D01*
X59036000Y-141482000D02*
X59836000Y-141482000D01*
X59436000Y-140473000D02*
X59436000Y-140873000D01*
X59436000Y-141482000D02*
X59436000Y-141982000D01*
X59836000Y-141482000D02*
X59436000Y-140882000D01*
X59436000Y-140882000D02*
X58886000Y-140882000D01*
X59436000Y-140882000D02*
X59986000Y-140882000D01*
%TO.C,S_Z1*%
X56804000Y-150714000D02*
X56254000Y-150714000D01*
X57204000Y-151314000D02*
X56804000Y-150714000D01*
X56804000Y-150714000D02*
X56404000Y-151314000D01*
X56804000Y-151314000D02*
X56804000Y-151814000D01*
X56404000Y-151314000D02*
X57204000Y-151314000D01*
X56804000Y-150305000D02*
X56804000Y-150705000D01*
X56804000Y-150714000D02*
X57354000Y-150714000D01*
%TO.C,S_E1*%
X65948000Y-130493000D02*
X65948000Y-130893000D01*
X65548000Y-131502000D02*
X66348000Y-131502000D01*
X65948000Y-131502000D02*
X65948000Y-132002000D01*
X65948000Y-130902000D02*
X65548000Y-131502000D01*
X66348000Y-131502000D02*
X65948000Y-130902000D01*
X65948000Y-130902000D02*
X65398000Y-130902000D01*
X65948000Y-130902000D02*
X66498000Y-130902000D01*
%TO.C,S_UP1*%
X56804000Y-160620000D02*
X56404000Y-161220000D01*
X56804000Y-160620000D02*
X56254000Y-160620000D01*
X56804000Y-161220000D02*
X56804000Y-161720000D01*
X57204000Y-161220000D02*
X56804000Y-160620000D01*
X56804000Y-160211000D02*
X56804000Y-160611000D01*
X56804000Y-160620000D02*
X57354000Y-160620000D01*
X56404000Y-161220000D02*
X57204000Y-161220000D01*
%TO.C,S_\u002C1*%
X113700000Y-150305000D02*
X113700000Y-150705000D01*
X113700000Y-150714000D02*
X114250000Y-150714000D01*
X114100000Y-151314000D02*
X113700000Y-150714000D01*
X113700000Y-150714000D02*
X113300000Y-151314000D01*
X113300000Y-151314000D02*
X114100000Y-151314000D01*
X113700000Y-151314000D02*
X113700000Y-151814000D01*
X113700000Y-150714000D02*
X113150000Y-150714000D01*
%TO.C,S_F1*%
X75692000Y-140882000D02*
X75142000Y-140882000D01*
X75692000Y-140473000D02*
X75692000Y-140873000D01*
X75692000Y-140882000D02*
X76242000Y-140882000D01*
X76092000Y-141482000D02*
X75692000Y-140882000D01*
X75692000Y-140882000D02*
X75292000Y-141482000D01*
X75292000Y-141482000D02*
X76092000Y-141482000D01*
X75692000Y-141482000D02*
X75692000Y-141982000D01*
D12*
%TO.C,BT1*%
X114940000Y-100300000D02*
X122560000Y-100300000D01*
X122560000Y-100300000D02*
X122560000Y-106270000D01*
X122850000Y-100010000D02*
X122850000Y-101260000D01*
X120750000Y-101060000D02*
X120750000Y-100310000D01*
X114950000Y-101060000D02*
X114950000Y-100310000D01*
X122550000Y-101060000D02*
X120750000Y-101060000D01*
X122550000Y-100310000D02*
X122550000Y-101060000D01*
X114950000Y-102560000D02*
X115700000Y-102560000D01*
X116750000Y-100310000D02*
X116750000Y-101060000D01*
X121600000Y-100010000D02*
X122850000Y-100010000D01*
X119250000Y-101060000D02*
X118250000Y-101060000D01*
X115700000Y-105510000D02*
X118750000Y-105510000D01*
X114940000Y-106270000D02*
X114940000Y-100300000D01*
X120750000Y-100310000D02*
X122550000Y-100310000D01*
X118750000Y-105510000D02*
X120740000Y-105510000D01*
X114950000Y-100310000D02*
X116750000Y-100310000D01*
X118250000Y-101060000D02*
X118250000Y-100310000D01*
X121800000Y-102560000D02*
X121800000Y-103900000D01*
X116750000Y-101060000D02*
X114950000Y-101060000D01*
X122560000Y-106270000D02*
X114940000Y-106270000D01*
X115700000Y-102560000D02*
X115700000Y-105510000D01*
X118250000Y-100310000D02*
X119250000Y-100310000D01*
X122550000Y-102560000D02*
X121800000Y-102560000D01*
X119250000Y-100310000D02*
X119250000Y-101060000D01*
%TO.C,TH1*%
X118841600Y-95444000D02*
X118841600Y-98104000D01*
X117571600Y-95444000D02*
X116241600Y-95444000D01*
X118841600Y-98104000D02*
X121441600Y-98104000D01*
X118841600Y-95444000D02*
X121441600Y-95444000D01*
X121441600Y-95444000D02*
X121441600Y-98104000D01*
X116241600Y-95444000D02*
X116241600Y-96774000D01*
%TO.C,TP10*%
X47563000Y-110032800D02*
G75*
G03*
X47563000Y-110032800I-700000J0D01*
G01*
%TO.C,TP9*%
X45404000Y-110032800D02*
G75*
G03*
X45404000Y-110032800I-700000J0D01*
G01*
%TO.C,R7*%
X44858000Y-106757736D02*
X44858000Y-107211864D01*
X46328000Y-106757736D02*
X46328000Y-107211864D01*
%TO.C,R4*%
X141197000Y-106757736D02*
X141197000Y-107211864D01*
X139727000Y-106757736D02*
X139727000Y-107211864D01*
%TO.C,C2*%
X137761252Y-110059800D02*
X137238748Y-110059800D01*
X137761252Y-111529800D02*
X137238748Y-111529800D01*
%TO.C,C12*%
X131853000Y-102079248D02*
X131853000Y-102601752D01*
X133323000Y-102079248D02*
X133323000Y-102601752D01*
%TO.C,L1*%
X136190000Y-106089758D02*
X136190000Y-106910242D01*
X137310000Y-106089758D02*
X137310000Y-106910242D01*
%TD*%
M02*
