%TF.GenerationSoftware,KiCad,Pcbnew,6.0.0-rc1-unknown-d76c6bc884~144~ubuntu21.10.1*%
%TF.CreationDate,2021-11-30T16:14:45+00:00*%
%TF.ProjectId,tad2_bottom,74616432-5f62-46f7-9474-6f6d2e6b6963,rev?*%
%TF.SameCoordinates,Original*%
%TF.FileFunction,Soldermask,Top*%
%TF.FilePolarity,Negative*%
%FSLAX46Y46*%
G04 Gerber Fmt 4.6, Leading zero omitted, Abs format (unit mm)*
G04 Created by KiCad (PCBNEW 6.0.0-rc1-unknown-d76c6bc884~144~ubuntu21.10.1) date 2021-11-30 16:14:45*
%MOMM*%
%LPD*%
G01*
G04 APERTURE LIST*
G04 Aperture macros list*
%AMRoundRect*
0 Rectangle with rounded corners*
0 $1 Rounding radius*
0 $2 $3 $4 $5 $6 $7 $8 $9 X,Y pos of 4 corners*
0 Add a 4 corners polygon primitive as box body*
4,1,4,$2,$3,$4,$5,$6,$7,$8,$9,$2,$3,0*
0 Add four circle primitives for the rounded corners*
1,1,$1+$1,$2,$3*
1,1,$1+$1,$4,$5*
1,1,$1+$1,$6,$7*
1,1,$1+$1,$8,$9*
0 Add four rect primitives between the rounded corners*
20,1,$1+$1,$2,$3,$4,$5,0*
20,1,$1+$1,$4,$5,$6,$7,0*
20,1,$1+$1,$6,$7,$8,$9,0*
20,1,$1+$1,$8,$9,$2,$3,0*%
%AMRotRect*
0 Rectangle, with rotation*
0 The origin of the aperture is its center*
0 $1 length*
0 $2 width*
0 $3 Rotation angle, in degrees counterclockwise*
0 Add horizontal line*
21,1,$1,$2,0,0,$3*%
%AMFreePoly0*
4,1,26,0.100004,0.512504,0.100005,0.512500,0.100005,-0.406498,0.100006,-0.406500,0.100004,-0.406502,0.100004,-0.406504,0.100003,-0.406504,-0.005996,-0.512504,-0.006000,-0.512506,-0.006002,-0.512505,-0.700000,-0.512505,-0.700004,-0.512504,-0.700005,-0.512500,-0.700005,-0.287500,-0.700004,-0.287496,-0.700000,-0.287495,-0.200005,-0.287495,-0.200005,0.012500,-0.200004,0.012504,-0.200000,0.012505,
-0.100005,0.012505,-0.100005,0.512500,-0.100004,0.512504,-0.100000,0.512505,0.100000,0.512505,0.100004,0.512504,0.100004,0.512504,$1*%
%AMFreePoly1*
4,1,21,0.100004,0.512504,0.100005,0.512500,0.100005,0.012505,0.200000,0.012505,0.200004,0.012504,0.200005,0.012500,0.200005,-0.287495,0.700000,-0.287495,0.700004,-0.287496,0.700005,-0.287500,0.700005,-0.512500,0.700004,-0.512504,0.700000,-0.512505,-0.100000,-0.512505,-0.100004,-0.512504,-0.100005,-0.512500,-0.100005,0.512500,-0.100004,0.512504,-0.100000,0.512505,0.100000,0.512505,
0.100004,0.512504,0.100004,0.512504,$1*%
%AMFreePoly2*
4,1,21,0.100004,0.512504,0.100005,0.512500,0.100005,-0.512500,0.100004,-0.512504,0.100000,-0.512505,-0.700000,-0.512505,-0.700004,-0.512504,-0.700005,-0.512500,-0.700005,-0.287500,-0.700004,-0.287496,-0.700000,-0.287495,-0.200005,-0.287495,-0.200005,0.012500,-0.200004,0.012504,-0.200000,0.012505,-0.100005,0.012505,-0.100005,0.512500,-0.100004,0.512504,-0.100000,0.512505,0.100000,0.512505,
0.100004,0.512504,0.100004,0.512504,$1*%
%AMFreePoly3*
4,1,22,0.500000,-0.750000,0.000000,-0.750000,0.000000,-0.745033,-0.079941,-0.743568,-0.215256,-0.701293,-0.333266,-0.622738,-0.424486,-0.514219,-0.481581,-0.384460,-0.499164,-0.250000,-0.500000,-0.250000,-0.500000,0.250000,-0.499164,0.250000,-0.499963,0.256109,-0.478152,0.396186,-0.417904,0.524511,-0.324060,0.630769,-0.204165,0.706417,-0.067858,0.745374,0.000000,0.744959,0.000000,0.750000,
0.500000,0.750000,0.500000,-0.750000,0.500000,-0.750000,$1*%
%AMFreePoly4*
4,1,20,0.000000,0.744959,0.073905,0.744508,0.209726,0.703889,0.328688,0.626782,0.421226,0.519385,0.479903,0.390333,0.500000,0.250000,0.500000,-0.250000,0.499851,-0.262216,0.476331,-0.402017,0.414519,-0.529596,0.319384,-0.634700,0.198574,-0.708877,0.061801,-0.746166,0.000000,-0.745033,0.000000,-0.750000,-0.500000,-0.750000,-0.500000,0.750000,0.000000,0.750000,0.000000,0.744959,
0.000000,0.744959,$1*%
G04 Aperture macros list end*
%ADD10RoundRect,0.250000X0.475000X-0.337500X0.475000X0.337500X-0.475000X0.337500X-0.475000X-0.337500X0*%
%ADD11C,1.500000*%
%ADD12C,1.700000*%
%ADD13R,1.700000X1.700000*%
%ADD14O,1.700000X1.700000*%
%ADD15C,2.000000*%
%ADD16R,1.000000X1.500000*%
%ADD17C,1.000000*%
%ADD18R,0.400000X1.000000*%
%ADD19R,2.000000X1.300000*%
%ADD20RoundRect,0.075000X0.415425X0.521491X-0.521491X-0.415425X-0.415425X-0.521491X0.521491X0.415425X0*%
%ADD21RoundRect,0.075000X-0.415425X0.521491X-0.521491X0.415425X0.415425X-0.521491X0.521491X-0.415425X0*%
%ADD22C,2.100000*%
%ADD23RoundRect,0.250000X-0.350000X-0.450000X0.350000X-0.450000X0.350000X0.450000X-0.350000X0.450000X0*%
%ADD24RoundRect,0.150000X0.512500X0.150000X-0.512500X0.150000X-0.512500X-0.150000X0.512500X-0.150000X0*%
%ADD25RoundRect,0.250000X0.350000X0.450000X-0.350000X0.450000X-0.350000X-0.450000X0.350000X-0.450000X0*%
%ADD26C,2.200000*%
%ADD27RoundRect,0.250000X-0.475000X0.337500X-0.475000X-0.337500X0.475000X-0.337500X0.475000X0.337500X0*%
%ADD28C,5.000000*%
%ADD29R,0.400000X1.350000*%
%ADD30R,1.200000X1.900000*%
%ADD31C,1.450000*%
%ADD32O,1.200000X1.900000*%
%ADD33R,1.500000X1.900000*%
%ADD34C,0.800000*%
%ADD35R,0.900000X1.700000*%
%ADD36RotRect,1.800000X1.800000X45.000000*%
%ADD37C,1.800000*%
%ADD38RoundRect,0.062500X0.350000X0.062500X-0.350000X0.062500X-0.350000X-0.062500X0.350000X-0.062500X0*%
%ADD39R,1.700000X2.500000*%
%ADD40FreePoly0,90.000000*%
%ADD41R,0.200000X1.200000*%
%ADD42FreePoly1,270.000000*%
%ADD43R,0.800000X0.200000*%
%ADD44FreePoly2,270.000000*%
%ADD45FreePoly1,90.000000*%
%ADD46FreePoly3,0.000000*%
%ADD47FreePoly4,0.000000*%
%ADD48RoundRect,0.250000X0.350000X-0.275000X0.350000X0.275000X-0.350000X0.275000X-0.350000X-0.275000X0*%
%ADD49RoundRect,0.250000X-0.337500X-0.475000X0.337500X-0.475000X0.337500X0.475000X-0.337500X0.475000X0*%
%ADD50R,1.800000X1.800000*%
%ADD51RoundRect,0.250000X0.337500X0.475000X-0.337500X0.475000X-0.337500X-0.475000X0.337500X-0.475000X0*%
%ADD52RoundRect,0.250000X0.450000X-0.350000X0.450000X0.350000X-0.450000X0.350000X-0.450000X-0.350000X0*%
%ADD53C,1.200000*%
%ADD54RoundRect,0.250000X0.600000X0.750000X-0.600000X0.750000X-0.600000X-0.750000X0.600000X-0.750000X0*%
%ADD55O,1.700000X2.000000*%
G04 APERTURE END LIST*
D10*
%TO.C,C8*%
X93218000Y-107260300D03*
X93218000Y-105185300D03*
%TD*%
D11*
%TO.C,S_'1*%
X130248000Y-137899000D03*
X134748000Y-145899000D03*
X134748000Y-137899000D03*
X130248000Y-145899000D03*
D12*
X132600500Y-138613000D03*
%TD*%
D11*
%TO.C,S_;1*%
X122120000Y-137795000D03*
X126620000Y-145795000D03*
X126620000Y-137795000D03*
X122120000Y-145795000D03*
D12*
X124472500Y-138509000D03*
%TD*%
D11*
%TO.C,S_ENTER1*%
X146666000Y-137975000D03*
X151166000Y-145975000D03*
X151166000Y-137975000D03*
X146666000Y-145975000D03*
D12*
X149018500Y-138689000D03*
%TD*%
D13*
%TO.C,J4*%
X37033200Y-104698800D03*
D14*
X37033200Y-107238800D03*
X37033200Y-109778800D03*
X37033200Y-112318800D03*
X37033200Y-114858800D03*
%TD*%
D15*
%TO.C,*%
X98552000Y-98094800D03*
%TD*%
D16*
%TO.C,D3*%
X67107000Y-109511000D03*
X70307000Y-109511000D03*
X70307000Y-104611000D03*
X67107000Y-104611000D03*
%TD*%
D15*
%TO.C,*%
X73152000Y-98094800D03*
%TD*%
D17*
%TO.C,BATV*%
X108661200Y-109524800D03*
%TD*%
D11*
%TO.C,S_MAC1*%
X143618000Y-157533000D03*
X148118000Y-165533000D03*
X148118000Y-157533000D03*
X143618000Y-165533000D03*
D12*
X145970500Y-158247000D03*
%TD*%
D18*
%TO.C,J1*%
X123652000Y-113424800D03*
X122652000Y-113424800D03*
X121652000Y-113424800D03*
X120652000Y-113424800D03*
X119652000Y-113424800D03*
X118652000Y-113424800D03*
X117652000Y-113424800D03*
X116652000Y-113424800D03*
X115652000Y-113424800D03*
X114652000Y-113424800D03*
D19*
X126452000Y-110724800D03*
X111852000Y-110724800D03*
%TD*%
D11*
%TO.C,S_O1*%
X112376000Y-127815000D03*
X116876000Y-135815000D03*
X116876000Y-127815000D03*
X112376000Y-135815000D03*
D12*
X114728500Y-128529000D03*
%TD*%
D11*
%TO.C,S_[1*%
X128632000Y-127815000D03*
X133132000Y-127815000D03*
X133132000Y-135815000D03*
X128632000Y-135815000D03*
D12*
X130984500Y-128529000D03*
%TD*%
D20*
%TO.C,U1*%
X56322876Y-105681212D03*
X55969322Y-105327658D03*
X55615769Y-104974105D03*
X55262215Y-104620551D03*
X54908662Y-104266998D03*
X54555109Y-103913445D03*
X54201555Y-103559891D03*
X53848002Y-103206338D03*
X53494449Y-102852785D03*
X53140895Y-102499231D03*
X52787342Y-102145678D03*
X52433788Y-101792124D03*
D21*
X50436212Y-101792124D03*
X50082658Y-102145678D03*
X49729105Y-102499231D03*
X49375551Y-102852785D03*
X49021998Y-103206338D03*
X48668445Y-103559891D03*
X48314891Y-103913445D03*
X47961338Y-104266998D03*
X47607785Y-104620551D03*
X47254231Y-104974105D03*
X46900678Y-105327658D03*
X46547124Y-105681212D03*
D20*
X46547124Y-107678788D03*
X46900678Y-108032342D03*
X47254231Y-108385895D03*
X47607785Y-108739449D03*
X47961338Y-109093002D03*
X48314891Y-109446555D03*
X48668445Y-109800109D03*
X49021998Y-110153662D03*
X49375551Y-110507215D03*
X49729105Y-110860769D03*
X50082658Y-111214322D03*
X50436212Y-111567876D03*
D21*
X52433788Y-111567876D03*
X52787342Y-111214322D03*
X53140895Y-110860769D03*
X53494449Y-110507215D03*
X53848002Y-110153662D03*
X54201555Y-109800109D03*
X54555109Y-109446555D03*
X54908662Y-109093002D03*
X55262215Y-108739449D03*
X55615769Y-108385895D03*
X55969322Y-108032342D03*
X56322876Y-107678788D03*
%TD*%
D22*
%TO.C,H8*%
X143510000Y-124460000D03*
%TD*%
%TO.C,H6*%
X86360000Y-161290000D03*
%TD*%
D11*
%TO.C,S_TAB1*%
X37192000Y-127815000D03*
X41692000Y-127815000D03*
X41692000Y-135815000D03*
X37192000Y-135815000D03*
D12*
X39544500Y-128529000D03*
%TD*%
D11*
%TO.C,S_8*%
X103160000Y-117909000D03*
X107660000Y-117909000D03*
X107660000Y-125909000D03*
X103160000Y-125909000D03*
D12*
X105512500Y-118623000D03*
%TD*%
D11*
%TO.C,S_+1*%
X135672000Y-117909000D03*
X140172000Y-125909000D03*
X140172000Y-117909000D03*
X135672000Y-125909000D03*
D12*
X138024500Y-118623000D03*
%TD*%
D11*
%TO.C,S_3*%
X62520000Y-117909000D03*
X67020000Y-117909000D03*
X67020000Y-125909000D03*
X62520000Y-125909000D03*
D12*
X64872500Y-118623000D03*
%TD*%
D11*
%TO.C,S_RSH1*%
X146666000Y-147881000D03*
X151166000Y-155881000D03*
X151166000Y-147881000D03*
X146666000Y-155881000D03*
D12*
X149018500Y-148595000D03*
%TD*%
D11*
%TO.C,S_X1*%
X62592000Y-147627000D03*
X67092000Y-147627000D03*
X67092000Y-155627000D03*
X62592000Y-155627000D03*
D12*
X64944500Y-148341000D03*
%TD*%
D17*
%TO.C,TP4*%
X125857000Y-100965000D03*
%TD*%
D15*
%TO.C,*%
X88392000Y-98094800D03*
%TD*%
D11*
%TO.C,S_I1*%
X104248000Y-127815000D03*
X108748000Y-135815000D03*
X108748000Y-127815000D03*
X104248000Y-135815000D03*
D12*
X106600500Y-128529000D03*
%TD*%
D11*
%TO.C,S_D1*%
X65224000Y-137795000D03*
X69724000Y-145795000D03*
X69724000Y-137795000D03*
X65224000Y-145795000D03*
D12*
X67576500Y-138509000D03*
%TD*%
D15*
%TO.C,*%
X73152000Y-100634800D03*
%TD*%
D11*
%TO.C,S_CTR1*%
X39478000Y-137721000D03*
X43978000Y-137721000D03*
X43978000Y-145721000D03*
X39478000Y-145721000D03*
D12*
X41830500Y-138435000D03*
%TD*%
D11*
%TO.C,S_L1*%
X113992000Y-137795000D03*
X118492000Y-145795000D03*
X118492000Y-137795000D03*
X113992000Y-145795000D03*
D12*
X116344500Y-138509000D03*
%TD*%
D11*
%TO.C,S_J1*%
X97736000Y-137795000D03*
X102236000Y-145795000D03*
X102236000Y-137795000D03*
X97736000Y-145795000D03*
D12*
X100088500Y-138509000D03*
%TD*%
D15*
%TO.C,*%
X96012000Y-98094800D03*
%TD*%
D11*
%TO.C,S_T1*%
X79864000Y-127815000D03*
X84364000Y-127815000D03*
X84364000Y-135815000D03*
X79864000Y-135815000D03*
D12*
X82216500Y-128529000D03*
%TD*%
D23*
%TO.C,R2*%
X129032000Y-108634800D03*
X131032000Y-108634800D03*
%TD*%
D11*
%TO.C,S_2*%
X54392000Y-117917000D03*
X58892000Y-117917000D03*
X58892000Y-125917000D03*
X54392000Y-125917000D03*
D12*
X56744500Y-118631000D03*
%TD*%
D15*
%TO.C,*%
X93472000Y-98094800D03*
%TD*%
D11*
%TO.C,S_SPC1*%
X91640000Y-157533000D03*
X96140000Y-165533000D03*
X96140000Y-157533000D03*
X91640000Y-165533000D03*
D12*
X93992500Y-158247000D03*
%TD*%
D11*
%TO.C,S_LSH1*%
X37212000Y-147574000D03*
X41712000Y-155574000D03*
X41712000Y-147574000D03*
X37212000Y-155574000D03*
D12*
X39564500Y-148288000D03*
%TD*%
D11*
%TO.C,S_RFN1*%
X135490000Y-157533000D03*
X139990000Y-165533000D03*
X139990000Y-157533000D03*
X135490000Y-165533000D03*
D12*
X137842500Y-158247000D03*
%TD*%
D11*
%TO.C,S_\u005C1*%
X138414000Y-137975000D03*
X142914000Y-145975000D03*
X142914000Y-137975000D03*
X138414000Y-145975000D03*
D12*
X140766500Y-138689000D03*
%TD*%
D11*
%TO.C,S_1*%
X46264000Y-117909000D03*
X50764000Y-125909000D03*
X50764000Y-117909000D03*
X46264000Y-125909000D03*
D12*
X48616500Y-118623000D03*
%TD*%
D22*
%TO.C,H11*%
X71755000Y-164465000D03*
%TD*%
D17*
%TO.C,3V3*%
X52832000Y-98094800D03*
%TD*%
D24*
%TO.C,U3*%
X91053500Y-108696800D03*
X91053500Y-107746800D03*
X91053500Y-106796800D03*
X88778500Y-106796800D03*
X88778500Y-108696800D03*
%TD*%
D11*
%TO.C,S_/1*%
X127616000Y-147627000D03*
X132116000Y-147627000D03*
X132116000Y-155627000D03*
X127616000Y-155627000D03*
D12*
X129968500Y-148341000D03*
%TD*%
D11*
%TO.C,S_7*%
X95032000Y-117909000D03*
X99532000Y-125909000D03*
X99532000Y-117909000D03*
X95032000Y-125909000D03*
D12*
X97384500Y-118623000D03*
%TD*%
D16*
%TO.C,D4*%
X72949000Y-109511000D03*
X76149000Y-109511000D03*
X76149000Y-104611000D03*
X72949000Y-104611000D03*
%TD*%
D17*
%TO.C,TP14*%
X45212000Y-103174800D03*
%TD*%
D25*
%TO.C,R5*%
X125000000Y-96824800D03*
X123000000Y-96824800D03*
%TD*%
D17*
%TO.C,GND*%
X42672000Y-98094800D03*
%TD*%
D11*
%TO.C,S_P1*%
X120504000Y-127815000D03*
X125004000Y-127815000D03*
X125004000Y-135815000D03*
X120504000Y-135815000D03*
D12*
X122856500Y-128529000D03*
%TD*%
D26*
%TO.C,POWER1*%
X58821000Y-100594800D03*
X65821000Y-100594800D03*
D12*
X60071000Y-98094800D03*
X64571000Y-98094800D03*
%TD*%
D23*
%TO.C,R1*%
X139208000Y-100076000D03*
X141208000Y-100076000D03*
%TD*%
D11*
%TO.C,S_-1*%
X127544000Y-117909000D03*
X132044000Y-125909000D03*
X132044000Y-117909000D03*
X127544000Y-125909000D03*
D12*
X129896500Y-118623000D03*
%TD*%
D11*
%TO.C,S_]1*%
X136760000Y-127815000D03*
X141260000Y-127815000D03*
X141260000Y-135815000D03*
X136760000Y-135815000D03*
D12*
X139112500Y-128529000D03*
%TD*%
D15*
%TO.C,S_MB2*%
X81224154Y-165408154D03*
D12*
X78145764Y-162312087D03*
D15*
X79517905Y-163701905D03*
D12*
X73565834Y-157732156D03*
%TD*%
D27*
%TO.C,C5*%
X106680000Y-105642500D03*
X106680000Y-107717500D03*
%TD*%
D17*
%TO.C,TP15*%
X42672000Y-103174800D03*
%TD*%
%TO.C,TP12*%
X45212000Y-100634800D03*
%TD*%
%TO.C,TP13*%
X42672000Y-100634800D03*
%TD*%
%TO.C,TP1*%
X107102020Y-101089063D03*
%TD*%
D28*
%TO.C,H2*%
X148590000Y-100330000D03*
%TD*%
D11*
%TO.C,S_U1*%
X96120000Y-127815000D03*
X100620000Y-127815000D03*
X100620000Y-135815000D03*
X96120000Y-135815000D03*
D12*
X98472500Y-128529000D03*
%TD*%
D22*
%TO.C,H4*%
X36195000Y-141605000D03*
%TD*%
D29*
%TO.C,J2*%
X109550000Y-99200000D03*
X108900000Y-99200000D03*
X108250000Y-99200000D03*
X107600000Y-99200000D03*
X106950000Y-99200000D03*
D30*
X111150000Y-96500000D03*
D31*
X110750000Y-99200000D03*
D32*
X111750000Y-96500000D03*
D30*
X105350000Y-96500000D03*
D32*
X104750000Y-96500000D03*
D33*
X107250000Y-96500000D03*
X109250000Y-96500000D03*
D31*
X105750000Y-99200000D03*
%TD*%
D11*
%TO.C,S_RIG1*%
X127362000Y-157533000D03*
X131862000Y-157533000D03*
X131862000Y-165533000D03*
X127362000Y-165533000D03*
D12*
X129714500Y-158247000D03*
%TD*%
D11*
%TO.C,S_LHY1*%
X38208000Y-157533000D03*
X42708000Y-157533000D03*
X42708000Y-165533000D03*
X38208000Y-165533000D03*
D12*
X40560500Y-158247000D03*
%TD*%
D15*
%TO.C,*%
X75692000Y-100634800D03*
%TD*%
D11*
%TO.C,S_.1*%
X119488000Y-147627000D03*
X123988000Y-155627000D03*
X123988000Y-147627000D03*
X119488000Y-155627000D03*
D12*
X121840500Y-148341000D03*
%TD*%
D15*
%TO.C,*%
X98552000Y-100634800D03*
%TD*%
%TO.C,*%
X78232000Y-98094800D03*
%TD*%
%TO.C,S_MB5*%
X115514154Y-165408154D03*
D12*
X112435764Y-162312087D03*
D15*
X113807905Y-163701905D03*
D12*
X107855834Y-157732156D03*
%TD*%
D11*
%TO.C,S_4*%
X70648000Y-117909000D03*
X75148000Y-125909000D03*
X75148000Y-117909000D03*
X70648000Y-125909000D03*
D12*
X73000500Y-118623000D03*
%TD*%
D11*
%TO.C,S_C1*%
X70720000Y-147627000D03*
X75220000Y-147627000D03*
X75220000Y-155627000D03*
X70720000Y-155627000D03*
D12*
X73072500Y-148341000D03*
%TD*%
D15*
%TO.C,*%
X75692000Y-98094800D03*
%TD*%
D11*
%TO.C,S_TIL1*%
X135490000Y-147627000D03*
X139990000Y-147627000D03*
X139990000Y-155627000D03*
X135490000Y-155627000D03*
D12*
X137842500Y-148341000D03*
%TD*%
D17*
%TO.C,5V*%
X50292000Y-98094800D03*
%TD*%
D11*
%TO.C,S_H1*%
X89608000Y-137795000D03*
X94108000Y-137795000D03*
X94108000Y-145795000D03*
X89608000Y-145795000D03*
D12*
X91960500Y-138509000D03*
%TD*%
D34*
%TO.C,SW1*%
X127402000Y-105544800D03*
D35*
X125702000Y-105544800D03*
X129102000Y-105544800D03*
%TD*%
D16*
%TO.C,D5*%
X78791000Y-109511000D03*
X81991000Y-109511000D03*
X81991000Y-104611000D03*
X78791000Y-104611000D03*
%TD*%
D22*
%TO.C,H7*%
X143510000Y-152400000D03*
%TD*%
D10*
%TO.C,C3*%
X140462000Y-109927300D03*
X140462000Y-107852300D03*
%TD*%
D17*
%TO.C,TP11*%
X45212000Y-98094800D03*
%TD*%
%TO.C,TP2*%
X112014000Y-101981000D03*
%TD*%
D15*
%TO.C,*%
X83312000Y-98094800D03*
%TD*%
D22*
%TO.C,H10*%
X113665000Y-160020000D03*
%TD*%
D17*
%TO.C,GND*%
X100852000Y-103714800D03*
%TD*%
D36*
%TO.C,D6*%
X41008439Y-108140361D03*
D37*
X42804490Y-106344310D03*
%TD*%
D11*
%TO.C,S_K1*%
X105864000Y-137795000D03*
X110364000Y-145795000D03*
X110364000Y-137795000D03*
X105864000Y-145795000D03*
D12*
X108216500Y-138509000D03*
%TD*%
D38*
%TO.C,U2*%
X103062500Y-110220000D03*
X103062500Y-109720000D03*
X103062500Y-109220000D03*
X103062500Y-108720000D03*
X103062500Y-108220000D03*
X100137500Y-108220000D03*
X100137500Y-108720000D03*
X100137500Y-109220000D03*
X100137500Y-109720000D03*
X100137500Y-110220000D03*
D39*
X101600000Y-109220000D03*
%TD*%
D15*
%TO.C,*%
X80772000Y-100634800D03*
%TD*%
D28*
%TO.C,H3*%
X101600000Y-161290000D03*
%TD*%
D40*
%TO.C,BM1*%
X135629500Y-107776000D03*
D41*
X136492000Y-107876000D03*
X136942000Y-107876000D03*
X137392000Y-107876000D03*
X137842000Y-107876000D03*
D42*
X138704500Y-107776000D03*
D43*
X138817000Y-107326000D03*
X138817000Y-106876000D03*
X138817000Y-106426000D03*
X138817000Y-105976000D03*
X138817000Y-105526000D03*
D44*
X138704500Y-105076000D03*
D41*
X137842000Y-104976000D03*
X137392000Y-104976000D03*
X136942000Y-104976000D03*
X136492000Y-104976000D03*
D45*
X135629500Y-105076000D03*
D43*
X135517000Y-105526000D03*
X135517000Y-105976000D03*
X135517000Y-106426000D03*
X135517000Y-106876000D03*
X135517000Y-107326000D03*
%TD*%
D22*
%TO.C,H5*%
X55245000Y-115570000D03*
%TD*%
D11*
%TO.C,S_DOWN1*%
X62592000Y-157533000D03*
X67092000Y-157533000D03*
X67092000Y-165533000D03*
X62592000Y-165533000D03*
D12*
X64944500Y-158247000D03*
%TD*%
D11*
%TO.C,S_A1*%
X48968000Y-137795000D03*
X53468000Y-145795000D03*
X53468000Y-137795000D03*
X48968000Y-145795000D03*
D12*
X51320500Y-138509000D03*
%TD*%
D11*
%TO.C,S_BCK1*%
X146666000Y-127815000D03*
X151166000Y-135815000D03*
X151166000Y-127815000D03*
X146666000Y-135815000D03*
D12*
X149018500Y-128529000D03*
%TD*%
D15*
%TO.C,S_MB3*%
X84763154Y-165408154D03*
D12*
X81684764Y-162312087D03*
D15*
X83056905Y-163701905D03*
D12*
X77104834Y-157732156D03*
%TD*%
D11*
%TO.C,S_10*%
X119416000Y-117909000D03*
X123916000Y-125909000D03*
X123916000Y-117909000D03*
X119416000Y-125909000D03*
D12*
X121768500Y-118623000D03*
%TD*%
D11*
%TO.C,S_DEL1*%
X146666000Y-117909000D03*
X151166000Y-117909000D03*
X151166000Y-125909000D03*
X146666000Y-125909000D03*
D12*
X149018500Y-118623000D03*
%TD*%
D11*
%TO.C,S_R1*%
X71736000Y-127815000D03*
X76236000Y-127815000D03*
X76236000Y-135815000D03*
X71736000Y-135815000D03*
D12*
X74088500Y-128529000D03*
%TD*%
D11*
%TO.C,S_B1*%
X86976000Y-147627000D03*
X91476000Y-147627000D03*
X91476000Y-155627000D03*
X86976000Y-155627000D03*
D12*
X89328500Y-148341000D03*
%TD*%
D11*
%TO.C,S_Q1*%
X47352000Y-127815000D03*
X51852000Y-135815000D03*
X51852000Y-127815000D03*
X47352000Y-135815000D03*
D12*
X49704500Y-128529000D03*
%TD*%
D11*
%TO.C,S_M1*%
X103232000Y-147675500D03*
X107732000Y-155675500D03*
X107732000Y-147675500D03*
X103232000Y-155675500D03*
D12*
X105584500Y-148389500D03*
%TD*%
D46*
%TO.C,JP2*%
X135189200Y-99974400D03*
D47*
X136489200Y-99974400D03*
%TD*%
D17*
%TO.C,3V3*%
X83185000Y-102235000D03*
%TD*%
D15*
%TO.C,S_MB4*%
X112068154Y-165408154D03*
D12*
X108989764Y-162312087D03*
D15*
X110361905Y-163701905D03*
D12*
X104409834Y-157732156D03*
%TD*%
D11*
%TO.C,S_LEF1*%
X119234000Y-157533000D03*
X123734000Y-157533000D03*
X123734000Y-165533000D03*
X119234000Y-165533000D03*
D12*
X121586500Y-158247000D03*
%TD*%
D48*
%TO.C,L3*%
X106680000Y-111894000D03*
X106680000Y-109594000D03*
%TD*%
D49*
%TO.C,C1*%
X136462500Y-110794800D03*
X138537500Y-110794800D03*
%TD*%
D15*
%TO.C,*%
X80772000Y-98094800D03*
%TD*%
D11*
%TO.C,S_ESC1*%
X37192000Y-117909000D03*
X41692000Y-117909000D03*
X41692000Y-125909000D03*
X37192000Y-125909000D03*
D12*
X39544500Y-118623000D03*
%TD*%
D11*
%TO.C,S_W1*%
X55480000Y-127815000D03*
X59980000Y-135815000D03*
X59980000Y-127815000D03*
X55480000Y-135815000D03*
D12*
X57832500Y-128529000D03*
%TD*%
D16*
%TO.C,D2*%
X61265000Y-109511000D03*
X64465000Y-109511000D03*
X64465000Y-104611000D03*
X61265000Y-104611000D03*
%TD*%
D17*
%TO.C,TP8*%
X47752000Y-98094800D03*
%TD*%
D10*
%TO.C,C6*%
X97155000Y-112797500D03*
X97155000Y-110722500D03*
%TD*%
D11*
%TO.C,S_V1*%
X78848000Y-147627000D03*
X83348000Y-147627000D03*
X83348000Y-155627000D03*
X78848000Y-155627000D03*
D12*
X81200500Y-148341000D03*
%TD*%
D10*
%TO.C,C10*%
X86614000Y-105482300D03*
X86614000Y-103407300D03*
%TD*%
D15*
%TO.C,*%
X90932000Y-98094800D03*
%TD*%
%TO.C,*%
X70612000Y-100634800D03*
%TD*%
D50*
%TO.C,D1*%
X143002000Y-104444800D03*
D37*
X143002000Y-101904800D03*
%TD*%
D49*
%TO.C,C4*%
X136962500Y-102000000D03*
X139037500Y-102000000D03*
%TD*%
D51*
%TO.C,C13*%
X130098800Y-100939600D03*
X128023800Y-100939600D03*
%TD*%
D11*
%TO.C,S_5*%
X78776000Y-117909000D03*
X83276000Y-125909000D03*
X83276000Y-117909000D03*
X78776000Y-125909000D03*
D12*
X81128500Y-118623000D03*
%TD*%
D49*
%TO.C,C7*%
X99927500Y-112395000D03*
X102002500Y-112395000D03*
%TD*%
D22*
%TO.C,H9*%
X129352000Y-112864800D03*
%TD*%
D25*
%TO.C,R3*%
X132756438Y-104125122D03*
X130756438Y-104125122D03*
%TD*%
D11*
%TO.C,S_Y1*%
X87992000Y-127815000D03*
X92492000Y-127815000D03*
X92492000Y-135815000D03*
X87992000Y-135815000D03*
D12*
X90344500Y-128529000D03*
%TD*%
D11*
%TO.C,S_G1*%
X81480000Y-137795000D03*
X85980000Y-137795000D03*
X85980000Y-145795000D03*
X81480000Y-145795000D03*
D12*
X83832500Y-138509000D03*
%TD*%
D11*
%TO.C,S_N1*%
X95104000Y-147627000D03*
X99604000Y-147627000D03*
X99604000Y-155627000D03*
X95104000Y-155627000D03*
D12*
X97456500Y-148341000D03*
%TD*%
D15*
%TO.C,S_MB1*%
X77778154Y-165408154D03*
D12*
X74699764Y-162312087D03*
D15*
X76071905Y-163701905D03*
D12*
X70119834Y-157732156D03*
%TD*%
D15*
%TO.C,*%
X78232000Y-100634800D03*
%TD*%
D11*
%TO.C,S_9*%
X111288000Y-117909000D03*
X115788000Y-117909000D03*
X115788000Y-125909000D03*
X111288000Y-125909000D03*
D12*
X113640500Y-118623000D03*
%TD*%
D49*
%TO.C,C9*%
X88878500Y-104698800D03*
X90953500Y-104698800D03*
%TD*%
D15*
%TO.C,*%
X70612000Y-98094800D03*
%TD*%
D11*
%TO.C,S_ALT1*%
X45340000Y-147574000D03*
X49840000Y-147574000D03*
X49840000Y-155574000D03*
X45340000Y-155574000D03*
D12*
X47692500Y-148288000D03*
%TD*%
D28*
%TO.C,H1*%
X39370000Y-100330000D03*
%TD*%
D11*
%TO.C,S_6*%
X86904000Y-117909000D03*
X91404000Y-117909000D03*
X91404000Y-125909000D03*
X86904000Y-125909000D03*
D12*
X89256500Y-118623000D03*
%TD*%
D17*
%TO.C,5V1*%
X93218000Y-109651800D03*
%TD*%
D11*
%TO.C,S_LFN1*%
X46336000Y-157533000D03*
X50836000Y-157533000D03*
X50836000Y-165533000D03*
X46336000Y-165533000D03*
D12*
X48688500Y-158247000D03*
%TD*%
D15*
%TO.C,*%
X85852000Y-98094800D03*
%TD*%
D11*
%TO.C,S_S1*%
X57096000Y-137795000D03*
X61596000Y-145795000D03*
X61596000Y-137795000D03*
X57096000Y-145795000D03*
D12*
X59448500Y-138509000D03*
%TD*%
D11*
%TO.C,S_Z1*%
X54464000Y-147627000D03*
X58964000Y-155627000D03*
X58964000Y-147627000D03*
X54464000Y-155627000D03*
D12*
X56816500Y-148341000D03*
%TD*%
D11*
%TO.C,S_E1*%
X63608000Y-127815000D03*
X68108000Y-135815000D03*
X68108000Y-127815000D03*
X63608000Y-135815000D03*
D12*
X65960500Y-128529000D03*
%TD*%
D11*
%TO.C,S_UP1*%
X54464000Y-157533000D03*
X58964000Y-157533000D03*
X58964000Y-165533000D03*
X54464000Y-165533000D03*
D12*
X56816500Y-158247000D03*
%TD*%
D11*
%TO.C,S_\u002C1*%
X111360000Y-147627000D03*
X115860000Y-155627000D03*
X115860000Y-147627000D03*
X111360000Y-155627000D03*
D12*
X113712500Y-148341000D03*
%TD*%
D52*
%TO.C,R6*%
X97155000Y-108950000D03*
X97155000Y-106950000D03*
%TD*%
D11*
%TO.C,S_F1*%
X73352000Y-137795000D03*
X77852000Y-145795000D03*
X77852000Y-137795000D03*
X73352000Y-145795000D03*
D12*
X75704500Y-138509000D03*
%TD*%
D53*
%TO.C,BT1*%
X121600000Y-104760000D03*
D54*
X120000000Y-102760000D03*
D55*
X117500000Y-102760000D03*
%TD*%
D13*
%TO.C,TH1*%
X117571600Y-96774000D03*
D14*
X120111600Y-96774000D03*
%TD*%
M02*
