%TF.GenerationSoftware,KiCad,Pcbnew,6.0.0-rc1-unknown-d76c6bc884~144~ubuntu21.10.1*%
%TF.CreationDate,2021-11-30T16:14:45+00:00*%
%TF.ProjectId,tad2_bottom,74616432-5f62-46f7-9474-6f6d2e6b6963,rev?*%
%TF.SameCoordinates,Original*%
%TF.FileFunction,Paste,Top*%
%TF.FilePolarity,Positive*%
%FSLAX46Y46*%
G04 Gerber Fmt 4.6, Leading zero omitted, Abs format (unit mm)*
G04 Created by KiCad (PCBNEW 6.0.0-rc1-unknown-d76c6bc884~144~ubuntu21.10.1) date 2021-11-30 16:14:45*
%MOMM*%
%LPD*%
G01*
G04 APERTURE LIST*
G04 Aperture macros list*
%AMRoundRect*
0 Rectangle with rounded corners*
0 $1 Rounding radius*
0 $2 $3 $4 $5 $6 $7 $8 $9 X,Y pos of 4 corners*
0 Add a 4 corners polygon primitive as box body*
4,1,4,$2,$3,$4,$5,$6,$7,$8,$9,$2,$3,0*
0 Add four circle primitives for the rounded corners*
1,1,$1+$1,$2,$3*
1,1,$1+$1,$4,$5*
1,1,$1+$1,$6,$7*
1,1,$1+$1,$8,$9*
0 Add four rect primitives between the rounded corners*
20,1,$1+$1,$2,$3,$4,$5,0*
20,1,$1+$1,$4,$5,$6,$7,0*
20,1,$1+$1,$6,$7,$8,$9,0*
20,1,$1+$1,$8,$9,$2,$3,0*%
%AMFreePoly0*
4,1,26,0.100004,0.512504,0.100005,0.512500,0.100005,-0.406498,0.100006,-0.406500,0.100004,-0.406502,0.100004,-0.406504,0.100003,-0.406504,-0.005996,-0.512504,-0.006000,-0.512506,-0.006002,-0.512505,-0.700000,-0.512505,-0.700004,-0.512504,-0.700005,-0.512500,-0.700005,-0.287500,-0.700004,-0.287496,-0.700000,-0.287495,-0.200005,-0.287495,-0.200005,0.012500,-0.200004,0.012504,-0.200000,0.012505,
-0.100005,0.012505,-0.100005,0.512500,-0.100004,0.512504,-0.100000,0.512505,0.100000,0.512505,0.100004,0.512504,0.100004,0.512504,$1*%
%AMFreePoly1*
4,1,21,0.100004,0.512504,0.100005,0.512500,0.100005,0.012505,0.200000,0.012505,0.200004,0.012504,0.200005,0.012500,0.200005,-0.287495,0.700000,-0.287495,0.700004,-0.287496,0.700005,-0.287500,0.700005,-0.512500,0.700004,-0.512504,0.700000,-0.512505,-0.100000,-0.512505,-0.100004,-0.512504,-0.100005,-0.512500,-0.100005,0.512500,-0.100004,0.512504,-0.100000,0.512505,0.100000,0.512505,
0.100004,0.512504,0.100004,0.512504,$1*%
%AMFreePoly2*
4,1,21,0.100004,0.512504,0.100005,0.512500,0.100005,-0.512500,0.100004,-0.512504,0.100000,-0.512505,-0.700000,-0.512505,-0.700004,-0.512504,-0.700005,-0.512500,-0.700005,-0.287500,-0.700004,-0.287496,-0.700000,-0.287495,-0.200005,-0.287495,-0.200005,0.012500,-0.200004,0.012504,-0.200000,0.012505,-0.100005,0.012505,-0.100005,0.512500,-0.100004,0.512504,-0.100000,0.512505,0.100000,0.512505,
0.100004,0.512504,0.100004,0.512504,$1*%
G04 Aperture macros list end*
%ADD10RoundRect,0.250000X0.475000X-0.337500X0.475000X0.337500X-0.475000X0.337500X-0.475000X-0.337500X0*%
%ADD11R,1.000000X1.500000*%
%ADD12R,0.400000X1.000000*%
%ADD13R,2.000000X1.300000*%
%ADD14RoundRect,0.075000X0.415425X0.521491X-0.521491X-0.415425X-0.415425X-0.521491X0.521491X0.415425X0*%
%ADD15RoundRect,0.075000X-0.415425X0.521491X-0.521491X0.415425X0.415425X-0.521491X0.521491X-0.415425X0*%
%ADD16RoundRect,0.250000X-0.350000X-0.450000X0.350000X-0.450000X0.350000X0.450000X-0.350000X0.450000X0*%
%ADD17RoundRect,0.150000X0.512500X0.150000X-0.512500X0.150000X-0.512500X-0.150000X0.512500X-0.150000X0*%
%ADD18RoundRect,0.250000X0.350000X0.450000X-0.350000X0.450000X-0.350000X-0.450000X0.350000X-0.450000X0*%
%ADD19RoundRect,0.250000X-0.475000X0.337500X-0.475000X-0.337500X0.475000X-0.337500X0.475000X0.337500X0*%
%ADD20R,0.400000X1.350000*%
%ADD21R,1.500000X1.900000*%
%ADD22R,0.900000X1.700000*%
%ADD23RoundRect,0.172500X0.172500X0.332500X-0.172500X0.332500X-0.172500X-0.332500X0.172500X-0.332500X0*%
%ADD24RoundRect,0.062500X0.350000X0.062500X-0.350000X0.062500X-0.350000X-0.062500X0.350000X-0.062500X0*%
%ADD25FreePoly0,90.000000*%
%ADD26R,0.200000X1.200000*%
%ADD27FreePoly1,270.000000*%
%ADD28R,0.800000X0.200000*%
%ADD29FreePoly2,270.000000*%
%ADD30FreePoly1,90.000000*%
%ADD31RoundRect,0.250000X0.350000X-0.275000X0.350000X0.275000X-0.350000X0.275000X-0.350000X-0.275000X0*%
%ADD32RoundRect,0.250000X-0.337500X-0.475000X0.337500X-0.475000X0.337500X0.475000X-0.337500X0.475000X0*%
%ADD33RoundRect,0.250000X0.337500X0.475000X-0.337500X0.475000X-0.337500X-0.475000X0.337500X-0.475000X0*%
%ADD34RoundRect,0.250000X0.450000X-0.350000X0.450000X0.350000X-0.450000X0.350000X-0.450000X-0.350000X0*%
G04 APERTURE END LIST*
D10*
%TO.C,C8*%
X93218000Y-107260300D03*
X93218000Y-105185300D03*
%TD*%
D11*
%TO.C,D3*%
X67107000Y-109511000D03*
X70307000Y-109511000D03*
X70307000Y-104611000D03*
X67107000Y-104611000D03*
%TD*%
D12*
%TO.C,J1*%
X123652000Y-113424800D03*
X122652000Y-113424800D03*
X121652000Y-113424800D03*
X120652000Y-113424800D03*
X119652000Y-113424800D03*
X118652000Y-113424800D03*
X117652000Y-113424800D03*
X116652000Y-113424800D03*
X115652000Y-113424800D03*
X114652000Y-113424800D03*
D13*
X126452000Y-110724800D03*
X111852000Y-110724800D03*
%TD*%
D14*
%TO.C,U1*%
X56322876Y-105681212D03*
X55969322Y-105327658D03*
X55615769Y-104974105D03*
X55262215Y-104620551D03*
X54908662Y-104266998D03*
X54555109Y-103913445D03*
X54201555Y-103559891D03*
X53848002Y-103206338D03*
X53494449Y-102852785D03*
X53140895Y-102499231D03*
X52787342Y-102145678D03*
X52433788Y-101792124D03*
D15*
X50436212Y-101792124D03*
X50082658Y-102145678D03*
X49729105Y-102499231D03*
X49375551Y-102852785D03*
X49021998Y-103206338D03*
X48668445Y-103559891D03*
X48314891Y-103913445D03*
X47961338Y-104266998D03*
X47607785Y-104620551D03*
X47254231Y-104974105D03*
X46900678Y-105327658D03*
X46547124Y-105681212D03*
D14*
X46547124Y-107678788D03*
X46900678Y-108032342D03*
X47254231Y-108385895D03*
X47607785Y-108739449D03*
X47961338Y-109093002D03*
X48314891Y-109446555D03*
X48668445Y-109800109D03*
X49021998Y-110153662D03*
X49375551Y-110507215D03*
X49729105Y-110860769D03*
X50082658Y-111214322D03*
X50436212Y-111567876D03*
D15*
X52433788Y-111567876D03*
X52787342Y-111214322D03*
X53140895Y-110860769D03*
X53494449Y-110507215D03*
X53848002Y-110153662D03*
X54201555Y-109800109D03*
X54555109Y-109446555D03*
X54908662Y-109093002D03*
X55262215Y-108739449D03*
X55615769Y-108385895D03*
X55969322Y-108032342D03*
X56322876Y-107678788D03*
%TD*%
D16*
%TO.C,R2*%
X129032000Y-108634800D03*
X131032000Y-108634800D03*
%TD*%
D17*
%TO.C,U3*%
X91053500Y-108696800D03*
X91053500Y-107746800D03*
X91053500Y-106796800D03*
X88778500Y-106796800D03*
X88778500Y-108696800D03*
%TD*%
D11*
%TO.C,D4*%
X72949000Y-109511000D03*
X76149000Y-109511000D03*
X76149000Y-104611000D03*
X72949000Y-104611000D03*
%TD*%
D18*
%TO.C,R5*%
X125000000Y-96824800D03*
X123000000Y-96824800D03*
%TD*%
D16*
%TO.C,R1*%
X139208000Y-100076000D03*
X141208000Y-100076000D03*
%TD*%
D19*
%TO.C,C5*%
X106680000Y-105642500D03*
X106680000Y-107717500D03*
%TD*%
D20*
%TO.C,J2*%
X109550000Y-99200000D03*
X108900000Y-99200000D03*
X108250000Y-99200000D03*
X107600000Y-99200000D03*
X106950000Y-99200000D03*
D21*
X107250000Y-96500000D03*
X109250000Y-96500000D03*
%TD*%
D22*
%TO.C,SW1*%
X125702000Y-105544800D03*
X129102000Y-105544800D03*
%TD*%
D11*
%TO.C,D5*%
X78791000Y-109511000D03*
X81991000Y-109511000D03*
X81991000Y-104611000D03*
X78791000Y-104611000D03*
%TD*%
D10*
%TO.C,C3*%
X140462000Y-109927300D03*
X140462000Y-107852300D03*
%TD*%
D23*
%TO.C,U2*%
X102025000Y-108595000D03*
X101175000Y-108595000D03*
X101175000Y-109845000D03*
X102025000Y-109845000D03*
D24*
X103062500Y-110220000D03*
X103062500Y-109720000D03*
X103062500Y-109220000D03*
X103062500Y-108720000D03*
X103062500Y-108220000D03*
X100137500Y-108220000D03*
X100137500Y-108720000D03*
X100137500Y-109220000D03*
X100137500Y-109720000D03*
X100137500Y-110220000D03*
%TD*%
D25*
%TO.C,BM1*%
X135629500Y-107776000D03*
D26*
X136492000Y-107876000D03*
X136942000Y-107876000D03*
X137392000Y-107876000D03*
X137842000Y-107876000D03*
D27*
X138704500Y-107776000D03*
D28*
X138817000Y-107326000D03*
X138817000Y-106876000D03*
X138817000Y-106426000D03*
X138817000Y-105976000D03*
X138817000Y-105526000D03*
D29*
X138704500Y-105076000D03*
D26*
X137842000Y-104976000D03*
X137392000Y-104976000D03*
X136942000Y-104976000D03*
X136492000Y-104976000D03*
D30*
X135629500Y-105076000D03*
D28*
X135517000Y-105526000D03*
X135517000Y-105976000D03*
X135517000Y-106426000D03*
X135517000Y-106876000D03*
X135517000Y-107326000D03*
%TD*%
D31*
%TO.C,L3*%
X106680000Y-111894000D03*
X106680000Y-109594000D03*
%TD*%
D32*
%TO.C,C1*%
X136462500Y-110794800D03*
X138537500Y-110794800D03*
%TD*%
D11*
%TO.C,D2*%
X61265000Y-109511000D03*
X64465000Y-109511000D03*
X64465000Y-104611000D03*
X61265000Y-104611000D03*
%TD*%
D10*
%TO.C,C6*%
X97155000Y-112797500D03*
X97155000Y-110722500D03*
%TD*%
%TO.C,C10*%
X86614000Y-105482300D03*
X86614000Y-103407300D03*
%TD*%
D32*
%TO.C,C4*%
X136962500Y-102000000D03*
X139037500Y-102000000D03*
%TD*%
D33*
%TO.C,C13*%
X130098800Y-100939600D03*
X128023800Y-100939600D03*
%TD*%
D32*
%TO.C,C7*%
X99927500Y-112395000D03*
X102002500Y-112395000D03*
%TD*%
D18*
%TO.C,R3*%
X132756438Y-104125122D03*
X130756438Y-104125122D03*
%TD*%
D32*
%TO.C,C9*%
X88878500Y-104698800D03*
X90953500Y-104698800D03*
%TD*%
D34*
%TO.C,R6*%
X97155000Y-108950000D03*
X97155000Y-106950000D03*
%TD*%
M02*
